<?xml version="1.0" encoding="UTF-8"?>
<svg width="1200pt" height="1200pt" version="1.1" viewBox="0 0 1200 1200" xmlns="http://www.w3.org/2000/svg">
 <path d="m1012.5 75h-637.5c-62.035 0-112.5 50.465-112.5 112.5v112.5h-75c-62.035 0-112.5 50.465-112.5 112.5v600c0 62.035 50.465 112.5 112.5 112.5h600c62.035 0 112.5-50.465 112.5-112.5v-37.5h112.5c62.035 0 112.5-50.465 112.5-112.5v-675c0-62.035-50.465-112.5-112.5-112.5zm-187.5 937.5c0 20.672-16.809 37.5-37.5 37.5h-600c-20.691 0-37.5-16.828-37.5-37.5v-600c0-20.672 16.809-37.5 37.5-37.5h600c20.691 0 37.5 16.828 37.5 37.5zm225-150c0 20.672-16.809 37.5-37.5 37.5h-112.5v-487.5c0-62.035-50.465-112.5-112.5-112.5h-450v-112.5c0-20.672 16.809-37.5 37.5-37.5h637.5c20.691 0 37.5 16.828 37.5 37.5z"/>
</svg>
