<?xml version="1.0" encoding="utf-8"?>
<!-- Generator: Adobe Illustrator 21.0.0, SVG Export Plug-In . SVG Version: 6.00 Build 0)  -->
<!DOCTYPE svg PUBLIC "-//W3C//DTD SVG 1.1//EN" "http://www.w3.org/Graphics/SVG/1.1/DTD/svg11.dtd">
<svg version="1.1" id="Layer_1" xmlns="http://www.w3.org/2000/svg" xmlns:xlink="http://www.w3.org/1999/xlink" x="0px" y="0px"
	 viewBox="0 0 82 100" style="enable-background:new 0 0 82 100;" xml:space="preserve">
<style type="text/css">
	.st0{fill:#313131;}
</style>
<g id="Layer_4">
	<path class="st0" d="M72.6,48c2,0.9,4.1,1.7,6.2,2.3c0.5,0.2,1.2,0,1.3-0.2c0.2-0.6-0.2-1.1-0.8-1.4c-1.1-0.5-2.1-0.9-3.2-1.5
		c-2-1.4-3.8-2.8-5.8-4.1c-0.9-0.6-1.8-1.2-2.6-2c-0.5-0.3-0.9-0.8-1.3-1.2c-0.6-0.6-1.2-0.6-1.8,0c-0.6,0.6-1.3,1.2-2,2
		c-2.7-1.1-4.7-3-5.8-5.8c-0.8-2-1.5-4-2.4-6c-2-4.3-4.1-8.6-7.3-12.1c-2.2-2.5-3.8-5.3-5.7-8.1c-1.5-2.3-3.5-4.1-6.3-4.9
		c-3.6-0.9-7.1-2-10.6-3.3c-2.7-0.9-5-0.8-7.3,0.9C16.8,3,16.3,3,15.6,2.7C14.3,3.2,13.5,3,12.8,3c-3.2-0.5-6-0.2-8.6,1.9
		C3,5.8,2.4,7.1,2.5,8.5c0.2,1.4,0,2.8,0.3,4c0.5,1.5,0.8,3,2.1,4.3c0.9,0.8,0.8,1.2-0.3,1.9c-3.3,1.4-3.5,4.3-3.2,7
		c0.2,0.8,0.9,1.4,1.5,2c0.8,0.3,1.5,0.9,2.3,1.7c-0.6,0.6-1.1,1.2-1.6,1.9c-0.6,0.6-0.6,1.4-0.6,2.3c0,2.9,1.5,4.7,3.5,6.6
		c0.3,0.3,0.6,0.5,0.9,0.8c0,0,0,0,0,0.2C6.9,41.5,6.3,42,6,42.6c-0.5,1.4-0.5,2.8,0,4.1c0.6,2,2.1,2.5,3.8,2.9
		c3.6,1.2,7.1,2.6,10.4,4.6c2.1,1.2,3.8,3.2,5.6,4.7c2.3,2,4.5,4.1,7.1,5.7c2,1.2,4.4,1.5,6.6,2.3c2.6,0.8,5.1,0.9,7.7,0.3
		c1.1-0.3,2.1,0,2.9,1.1c0.9,1.2,2.1,2.3,3.2,3.5c-1.3,1.9-1.5,4.1-1.6,6.3c-0.3,2.3-0.3,4.7-0.2,7c0,1.1,0.3,2.2,0.6,3
		c0.3,0.9,1.1,1.4,2,1.9c3.5,1.7,6.8,3.3,10.3,5c3,1.4,6.2,2.6,9.2,3.7c1.1,0.5,1.2,0,1.3-1.2c-5-2.9-9.8-5.7-14.7-8.6
		c-0.2-0.2-0.3-0.2-0.5-0.3c-0.3-0.3-0.9-0.6-0.5-1.1c0.2-0.2,0.8,0,1.1,0.2c3.2,1.7,6.5,3.5,9.7,5.2c0.3,0.2,0.7,0.3,1,0.3
		c1.4,0.7,2.8,1.4,4.2,2.2c0.4,0.2,0.7,0.4,1.1,0.3c0.4-0.1,0.7-0.4,0.6-0.8L74.6,93c-0.9-0.3-1.9-0.5-2.7-0.7
		c-0.1-0.2-0.1-0.3-0.3-0.4c-1.5-1.1-3.2-2-4.8-3c-1.6-1.1-3.5-2-5.1-3c-0.3-0.2-0.6-0.5-0.8-0.8c-0.2-0.2-0.2-0.6,0-0.9
		c0.2-0.2,0.6-0.2,0.8,0c1.1,0.8,2.1,1.5,3.2,2.3c2.3,1.5,4.5,3.2,7.4,3.7c0.2,0,0.8,0.3,0.9,0.4c1.3,0.9,3.6,2.1,4.2,2
		c0.7-0.1,1.4,0,1.5-0.7s0.6-0.9,0.4-1.5l-3-0.8c-1.1-0.1-4-1-4.4-1.2c-2.1-1.2-4.2-2.5-6.3-3.7c-1.2-0.6-2.3-1.4-3.3-2.2
		c-0.5-0.3-0.6-0.8-0.2-1.1c0.2-0.2,0.8-0.2,0.9,0c2.3,1.9,5,3.2,7.7,4.4c0.5,0.2,1.1,0.5,1.5,0.5c0.3,0,0.5-0.1,0.7-0.1
		c1.3,1.2,3,2.1,4.8,2.2c0.3,0.1,0.6,0.1,0.9-0.2c0.3-0.2,0.3-0.6,0.2-0.9c-0.1-0.3-0.4-0.6-0.6-0.8l-0.9,0.4
		c-1.2-0.4-2.5-0.7-3.8-1c0-0.1,0-0.2,0-0.3c-0.6-0.3-1.2-0.8-1.8-1.1c-2.7-1.5-5.5-3.2-8-4.7c-1.1-0.6-1.1-0.8-0.5-2.2
		c0.3,0.3,0.8,0.5,1.1,0.8c3,2.3,6.2,4,9.8,5.3c0.8,0.3,1.1-0.2,1.3-0.6c0.3-0.8-0.3-0.8-0.8-0.9c-2.9-0.9-5.1-2.6-7.6-4.3
		c-1.1-0.8-2.1-1.2-3-2c-0.2-0.2-0.2-0.5-0.3-0.6c0.2,0,0.5-0.3,0.6-0.2c0.6,0.3,1.2,0.6,1.6,0.8c2.9,1.5,5.6,2.9,8.4,4.4
		c0.5,0.3,1.1,0.3,1.6,0.3c0,0,0-0.2,0.2-0.2c-0.2-0.2-0.2-0.3-0.3-0.3c-2.7-1.7-5.3-3.5-8-5c-0.9-0.6-2-0.9-3-1.4
		c-0.6-0.3-0.8-0.6-0.5-1.2c0.3-0.8,0.8-0.3,1.1,0c3.3,1.7,6.8,3.5,10.1,5.2c0.3,0.2,0.9,0.2,1.2,0.2c0-0.2,0-0.2,0.2-0.3
		c-0.2-0.2-0.3-0.3-0.5-0.5c-2.6-1.5-5.1-3-7.9-4.7c-0.9-0.5-1.8-1.1-2.7-1.5c-1.1-0.5-1.1-0.9-0.5-2c1.3,0.6,2.6,1.2,3.9,1.9
		c2.4,1.1,4.8,2.2,7.3,3.2c0.3,0.2,0.6,0,1.1,0.2c0-0.2,0-0.2,0.2-0.3c-0.5-0.3-0.9-0.6-1.3-0.9c-3.3-1.9-6.6-3.7-9.8-5.7
		c-0.3-0.2-0.5-0.8-0.6-1.1c0.2-0.2,0.2-0.2,0.3-0.3c0.9,0.5,1.6,0.9,2.6,1.4c2,1.1,3.9,2.2,6,3.2c0.8,0.3,1.5,0.5,2.4,0.8
		c0-0.2,0.2-0.2,0.2-0.3c-0.9-0.6-1.8-1.5-2.9-2c-2.4-1.4-4.8-2.6-7.3-3.8c-0.9-0.5-0.9-0.6-0.5-1.5c3.6,1.7,7.3,3.3,10.8,4.9
		c0.2-0.2,0.2-0.3,0.3-0.5c-0.8-0.5-1.6-1.1-2.4-1.5c-2.6-1.5-5.1-3-7.6-4.4c-0.6-0.3-0.8-0.8-0.3-1.5c3.2,1.5,6.3,3.3,9.8,4.1
		c0-0.2,0.2-0.2,0.2-0.3c-0.2-0.2-0.3-0.3-0.5-0.5c-2.9-1.7-5.6-3.3-8.4-5c-0.3-0.2-0.3-0.8-0.6-1.1c0.3,0,0.8,0,1.1,0
		c3.2,1.4,6.2,2.9,9.4,4.3c0,0,0.2,0,0.6-0.2c-0.6-0.5-1.1-0.8-1.3-1.1c-2.7-1.7-5.5-3.3-8.2-5c-0.5-0.3-1.1-0.6-0.6-1.5
		c3.2,2,6.2,4.3,10,4.9c0-0.2,0.2-0.2,0.2-0.3c-0.5-0.3-0.9-0.8-1.5-1.1c-2.6-1.5-5.1-3-7.6-4.7c-0.2-0.2-0.5-0.2-0.6-0.5
		c-0.2-0.3-0.2-0.6-0.3-0.9c0.3,0,0.6-0.2,0.8,0c1.2,0.6,2.4,1.5,3.6,2.2c1.5,0.8,3,1.4,4.5,2c0.3,0.2,0.8,0,1.1,0.2
		c0-0.2,0-0.2,0.2-0.3c-3.3-2-6.6-4.1-10-6.1c0-0.2,0.2-0.2,0.2-0.3c3.2,1.9,6.2,4,10,3.5c-3.6-1.5-6.9-3.5-10.1-5.8
		c0,0,0-0.3,0-0.5C70.6,46.9,71.5,47.7,72.6,48z M64,43.3c0.2-0.3,0.3-0.6,0.6-0.6c0.2,0,0.5,0.3,0.6,0.5c0.2,0.6,0.5,1.4,0.8,2
		l-0.2,0.2c-0.6-0.5-1.2-0.8-1.6-1.2C64,43.8,63.8,43.4,64,43.3z M5.4,11.6C4,9.7,3.9,7.9,5,6.1c0.6-0.9,2.6-2,3.6-1.9
		C10.3,4.5,12,5,13.8,5.3c-1.1,1.1-1.1,1.1-2.4,0.9c-0.5,0-0.9,0.2-1.5,0.2c0.2,0.5,0.3,0.9,0.6,1.5C8.9,9.1,7.2,10.3,5.4,11.6z
		 M11.9,10.7c0.2,0.3,0.3,0.6,0.2,0.9c-0.9,1.5-3.2,2-4.8,0.9c1.3-1.1,2.7-2,3.9-2.9C11.4,10,11.7,10.3,11.9,10.7z M5,25.7
		C4.6,25.4,4,25,3.9,24.6c-1.1-2.6,0.9-5.5,3.6-5.5c2.3,0,4.5,0.3,6.6,0.5c2.4,0.3,4.8,0.6,7.3,0.9c2.1,0.3,4.1,0.6,6.2,1.1
		c2,0.5,3.3,3.2,2.7,5.2c0,0.2-0.2,0.5-0.3,0.5C28.6,28,27.2,28,26,28c-0.2-1.4-0.2-2.6-0.3-4c0.6,0.3,1.2,0.5,1.8,0.6
		c0.5,0.2,1.1,0.3,1.5,0.2c0.5,0,0.6-0.5,0.2-0.9c-1.2-1.1-2.6-1.7-4.4-1.4c-0.8,0.2-1.2,0.9-1.1,1.5c0.2,1.1,0.3,2.2,0.5,3.2
		c0,0.2-0.3,0.6-0.5,0.6c-1.1,0.2-2.3,0.2-3.2,0.3c-0.2-1.2-0.3-2.2-0.5-3.2c-0.2,0-0.3,0-0.5,0c-0.3,0.8-0.6,1.5-0.9,2.2
		c-0.3,0.6-0.6,0.9-1.3,0.8c-2.7-0.2-5.5-0.3-8.2-0.6c-2.1-0.2-2.9-1.1-2.9-3.3c0-0.3,0-0.6-0.2-0.9c-0.2,0-0.3,0-0.5-0.2
		C5.7,24,5.4,24.7,5,25.7z M20.3,17.5c0-0.2,0.3-0.6,0.6-0.9c0.2,0,0.2,0,0.3,0.2c0.2,0.5,0.3,0.8,0.3,1.2c-0.2,0.2-0.2,0.2-0.3,0.3
		C20.9,18,20.5,17.9,20.3,17.5z M22.9,16.3c0.9,0.5,1.5,0.9,1.1,2C23.2,18.2,22.7,17.4,22.9,16.3z M7.2,36.1v-0.2
		c-0.2-0.2-0.5-0.6-0.5-0.6c-0.3,0.2-0.6,0.3-0.9,0.6c0.2-0.2,0.3,0.2,0.3,0.5c-0.2,0-0.2,0.2-0.3,0.2c-0.5-0.6-1.1-1.4-1.1-2
		c0-0.9,0-2.3,0.6-2.8c1.3-1.4,3.3-1.9,5.3-1.5c3.8,0.5,7.6,0.9,11.5,0.5c1.8-0.2,3.5-0.3,5.3-0.3c1.8,0,2.9,0.9,3.3,2.9
		c0.3,1.4-0.9,3-2,3.5c-1.2,0.5-2.4,1.1-3.6,1.4c-1.6,0.3-3.2,0.5-4.8,0.8c0.2-1.2,0.2-2.3,0.2-3.3c0-0.2-0.2-0.5-0.3-0.6
		c-0.3,0.2-0.6,0.2-0.8,0.3c-0.2,0.2-0.2,0.5-0.3,0.8c-0.3,1.1-0.6,2-0.9,2.9c-0.5,0-0.8,0-1.2,0c-2.4-0.2-4.8-0.5-7.3-0.6
		C7.9,38.2,7.6,37.7,7.2,36.1z M18.7,47.2c0-0.5,0-0.9-0.2-1.2c-0.2-0.2-0.5-0.2-0.8-0.3c-0.3,0.6-0.5,1.1-0.6,1.9
		c-0.2,0-0.5,0-0.8,0.2c-2.3,0.3-4.7,0.2-6.9-0.5c-0.9-0.3-1.6-0.8-2-1.5C7.2,44.6,7,43,8.1,42.5c1.1-0.8,2.4-1.2,3.8-1.4
		c2.6-0.3,5.1-0.2,7.7-0.3c2,0,3.9-0.3,5.9-0.3c0.5,0,0.9,0.3,1.2,0.6c0.8,1.1,0.2,3-0.9,3.7c-2,1.2-3.3,0.5-3.6-1.7
		c-0.2-0.9,0.3-1.1,1.1-1.2c0.8,0,1.3,0,2.1,0c0.3,0,0.6-0.2,0.9-0.2c0-0.2,0-0.2,0.2-0.3c-0.2-0.2-0.3-0.3-0.5-0.3
		c-1.1-0.2-2.3-0.5-3.3-0.3c-1.8,0.3-2.4,1.7-1.5,3.3c0.5,0.8,0.9,1.4,1.3,2.3C21.1,46.7,19.9,46.9,18.7,47.2z M60.1,77.8
		c-1.1,2.9-2.1,5.8-3.2,8.6c-0.2,0.3-0.5,0.8-0.8,1.1c-1.1,1.1-2,0.8-2.4-0.9c1.6,0,2.9-0.8,3.6-2.3c0.5-0.8,0.8-1.7,1.1-2.5
		c0.5-1.7,1.1-3.2,1.5-4.7c0.2,0,0.2,0,0.3,0C60.2,77.3,60.2,77.7,60.1,77.8z M65.9,55.2c-0.3,2.3-0.9,4.6-1.5,6.9
		c-1.1,4.1-2.1,8.3-3.2,12.4c-0.2,0.6-0.5,1.2-0.8,2.2C59.3,75.2,58.1,74,57,73c-1.6-2-3.6-3.8-5-6c-0.8-1.2-1.6-2-2.9-2.9
		c-0.5,0.8-0.9,0.6-1.5,0.3c-1.3-0.8-2.6-1.5-3.9-2.3c-0.3-0.2-0.8-0.3-1.1-0.3c0,0.2-0.2,0.3-0.2,0.3c0.6,0.8,1.1,1.5,1.6,2.3
		c-0.2,0-0.2,0.2-0.3,0.2c-1.5-1.2-2.9-2.6-4.5-4c0.3,1.1,0.5,2,0.6,2.9c-1.5-0.6-2-2.6-3.9-3c0.3,0.9,0.5,1.7,0.8,2.5
		c-1.6-0.9-2.1-2.9-4.1-3.5c0.2,0.8,0.3,1.2,0.5,1.5c-0.2,0-0.2,0.2-0.3,0.2c-0.8-0.9-1.6-1.9-2.6-2.8c-0.5,0.6-0.8,0.5-1.2,0
		c-0.5-0.5-1.1-0.9-1.5-1.4c-1.1-1.2-2.7-1.9-3.3-3.5c-0.2-0.5-0.5-2-1.8-0.5c-0.6-1.1-1.2-2-1.8-2.9c2.1-0.9,4.1-1.9,6-2.6
		c0.5,1.1,0.6,2.3,1.8,3c-0.2-2.5-0.9-4.7,0.6-6.9c1.6,2.3,2.3,5,4.1,6.9c0.2,0,0.2-0.2,0.3-0.2c-0.5-2.2-0.9-4.3-1.3-6.4
		c0.2,0,0.2,0,0.3-0.2c0.2,0.2,0.5,0.3,0.6,0.6c0.9,1.1,1.6,2.2,2.6,3c0.8,0.9,1.6,1.5,2.3,2.5c0.9,1.1,2,1.7,3.3,2
		c1.3,0.5,3,0.5,4.4,0.6c0.2,0,0.3-0.2,0.6-0.3c0-0.2,0-0.2,0.2-0.3c-2.1-0.8-4.4-0.9-5.9-2.8c-1.3-1.9-2.9-3.3-4.2-5.2
		c-1.3-1.9-2.7-3.5-2.6-6c1.1,0.8,2,1.7,3.2,2.3c0.9,0.5,2,0.3,3,0.5c0.2,0,0.5-0.3,0.8-0.6c-0.5-0.2-0.8-0.2-0.9-0.3
		c-1.1-0.5-2.1-0.8-3-1.4c-2.3-1.5-3-3.8-3.8-6.4c-0.2-0.9-0.6-1.7-0.6-2.6c0-1.4,0.3-2.6,0.5-4c0.3-1.4,1.1-2.3,2.3-3
		c0.5-0.3,0.9-0.6,1.5-1.1c-2.3-1.2-3.5,0.2-4.7,1.4c-0.6-1.1-0.5-1.7,0.5-2.8c0.2-0.2,0.2-0.5,0.3-0.8c-0.3,0-0.6-0.3-0.8-0.2
		c-0.6,0.3-1.2,0.8-1.8,1.2c-0.8-0.6-1.8-1.1-2.4-2c-0.8-1.1-1.2-2.3-0.8-3.8c0.2-0.3,0-0.6,0-0.9c0-0.2-0.3-0.6-0.3-0.6
		c-0.3,0-0.5,0.2-0.6,0.5c-0.3,0.3-0.5,0.8-0.8,1.2c-0.2,0-0.2,0-0.3,0c-0.2-0.8-0.2-1.4-0.3-2.2c-0.2-0.6-0.2-1.5-1.2-1.9
		c0.2,1.2,0.3,2.3,0.3,3.2c-0.6-0.5-0.8-0.9-1.2-1.4c-0.2-0.3-0.6-0.5-0.9-0.8c-0.2,0.5-0.2,0.8-0.3,1.2c-0.2,0.5,0,1.1-0.2,1.4
		c-1.5,1.7-3.5,2.8-5.8,3c-2.1,0.3-4.1-0.2-5.9-0.9c-0.9-0.5-2-0.9-2.6-2.2c2.4,1.1,4.1,0,5.8-1.5c1.5-1.5,1.2-2.8-0.9-3.5
		c2.3-1.7,4.4-3.3,6.3-4.9c0.9-0.8,2-0.9,3-0.6c1.8,0.5,3.6,1.1,5.3,1.7c2.4,0.9,4.7,2.2,7.3,2.6c0.9,0.2,2,0.5,2.9,0.9
		c1.8,1.1,3,2.8,4.1,4.7c1.1,1.9,2.1,3.8,3.5,5.2c2.7,2.8,4.8,6,6.5,9.5c1.5,2.9,2.6,6.1,3.9,9c1.1,2.2,2.3,4.3,4.4,5.8
		c1.2,0.8,2.3,1.7,3.5,2.5c1.1,0.6,2,1.7,3.3,1.2c0.2,0,0.3,0.3,0.5,0.5C66.5,49.9,66.4,52.6,65.9,55.2z"/>
</g>
</svg>
