<?xml version="1.0" encoding="utf-8"?>
<!-- Generator: Adobe Illustrator 21.0.0, SVG Export Plug-In . SVG Version: 6.00 Build 0)  -->
<!DOCTYPE svg PUBLIC "-//W3C//DTD SVG 1.1//EN" "http://www.w3.org/Graphics/SVG/1.1/DTD/svg11.dtd">
<svg version="1.1" xmlns="http://www.w3.org/2000/svg" xmlns:xlink="http://www.w3.org/1999/xlink" x="0px" y="0px"
	 viewBox="0 0 597 275" style="enable-background:new 0 0 597 275;" xml:space="preserve">
<style type="text/css">
	.st0{display:none;}
	.st1{display:inline;}
	.st2{fill:#EF4141;}
	.st3{fill:#FFFFFF;}
	.st4{fill:none;stroke:#EF4141;stroke-width:10;stroke-linecap:round;stroke-miterlimit:10;}
	.st5{fill:#313131;}
	.st6{fill:#E0CB4F;}
</style>
<g id="Layer_1" class="st0">
	<g id="Layer_3" class="st1">
	</g>
	<g id="Layer_1_1_" class="st1">
		<g>
			<path class="st2" d="M182.3,208.9v51.4c0,1.1-0.4,2.1-1.2,2.9c-0.8,0.8-1.8,1.2-2.9,1.2h-20.4c-1.1,0-2.1-0.4-2.9-1.2
				c-0.8-0.8-1.2-1.8-1.2-2.9V160c0-1.1,0.4-2.1,1.2-2.9c0.8-0.8,1.8-1.2,2.9-1.2h18c2.9,0,5.1,1.4,6.7,4.2l25.1,43l25.1-43
				c1.6-2.8,3.8-4.2,6.7-4.2h18c1.1,0,2.1,0.4,2.9,1.2c0.8,0.8,1.2,1.8,1.2,2.9v100.3c0,1.1-0.4,2.1-1.2,2.9s-1.8,1.2-2.9,1.2h-20.3
				c-1.1,0-2.1-0.4-2.9-1.2s-1.2-1.8-1.2-2.9v-51.4l-14.6,25.6c-0.7,1.1-1.5,2.1-2.4,2.8s-2,1.1-3.3,1.1h-9.9
				c-1.3,0-2.5-0.4-3.3-1.1c-0.9-0.7-1.7-1.7-2.4-2.8L182.3,208.9z"/>
			<path class="st2" d="M353.7,159.9c7.1,3.7,12.7,8.8,16.5,15.1c3.9,6.4,6,13.5,6.4,21.3c0.2,2.9,0.3,7.6,0.3,14
				c0,6.3-0.1,10.9-0.3,13.7c-0.4,7.9-2.6,15-6.4,21.3c-3.9,6.4-9.4,11.4-16.5,15.1c-7.1,3.7-15.6,5.6-25.5,5.6
				c-9.8,0-18.3-1.9-25.5-5.6c-7.2-3.7-12.7-8.8-16.5-15.1c-3.8-6.3-6-13.5-6.4-21.3c-0.2-5.6-0.3-10.1-0.3-13.7
				c0-3.5,0.1-8.2,0.3-14c0.4-7.9,2.6-15,6.4-21.3s9.4-11.4,16.5-15.1c7.1-3.7,15.6-5.6,25.5-5.6C338,154.3,346.5,156.1,353.7,159.9
				z M342.3,184c-3.3-3.3-7.9-4.9-14-4.9c-6.1,0-10.8,1.6-14,4.9c-3.2,3.3-5.1,7.6-5.7,13.1c-0.3,3.4-0.5,7.7-0.5,12.9
				c0,5.1,0.2,9.5,0.5,13.2c0.5,5.5,2.4,9.9,5.7,13.1c3.3,3.2,7.9,4.9,14,4.9c6.1,0,10.8-1.6,14-4.9c3.2-3.3,5.1-7.6,5.7-13.1
				c0.3-3.7,0.5-8.1,0.5-13.2c0-5.2-0.2-9.5-0.5-12.9C347.4,191.6,345.5,187.3,342.3,184z"/>
			<path class="st2" d="M474.1,247.3c-4.1,6.2-9.7,10.8-16.8,14c-7,3.2-14.8,4.7-23.3,4.7c-8.8,0-16.7-1.5-23.7-4.5
				s-12.5-7.3-16.5-12.9c-4-5.6-6-12-6.1-19.2c0-0.9,0.3-1.7,1-2.4s1.5-1,2.4-1H411c1.9,0,3.1,0.3,3.8,0.9c0.7,0.6,1.3,1.8,1.9,3.6
				c1.2,3.6,3.2,6.3,5.9,8.1c2.7,1.8,6.5,2.6,11.3,2.6c5.8,0,10.2-1.5,13.2-4.4s4.5-7.2,4.5-12.8v-43.3h-53.1
				c-1.1,0-2.1-0.4-2.9-1.2c-0.8-0.8-1.2-1.8-1.2-2.9V160c0-1.1,0.4-2.1,1.2-2.9c0.8-0.8,1.8-1.2,2.9-1.2H476c1.1,0,2.1,0.4,2.9,1.2
				c0.8,0.8,1.2,1.8,1.2,2.9v64.9C480.3,233.7,478.3,241.2,474.1,247.3z"/>
			<path class="st2" d="M571.5,159.9c7.1,3.7,12.7,8.8,16.5,15.1c3.9,6.4,6,13.5,6.4,21.3c0.2,2.9,0.3,7.6,0.3,14
				c0,6.3-0.1,10.9-0.3,13.7c-0.4,7.9-2.6,15-6.4,21.3c-3.9,6.4-9.4,11.4-16.5,15.1S555.9,266,546,266c-9.8,0-18.3-1.9-25.5-5.6
				s-12.7-8.8-16.5-15.1c-3.9-6.4-6-13.5-6.4-21.3c-0.2-5.6-0.3-10.1-0.3-13.7c0-3.5,0.1-8.2,0.3-14c0.4-7.9,2.6-15,6.4-21.3
				c3.9-6.4,9.4-11.4,16.5-15.1c7.1-3.7,15.6-5.6,25.5-5.6C555.8,154.3,564.3,156.1,571.5,159.9z M560,184c-3.3-3.3-7.9-4.9-14-4.9
				s-10.8,1.6-14,4.9c-3.3,3.3-5.1,7.6-5.7,13.1c-0.3,3.4-0.5,7.7-0.5,12.9c0,5.1,0.2,9.5,0.5,13.2c0.5,5.5,2.4,9.9,5.7,13.1
				c3.3,3.3,7.9,4.9,14,4.9s10.8-1.6,14-4.9c3.3-3.3,5.1-7.6,5.7-13.1c0.3-3.7,0.5-8.1,0.5-13.2c0-5.2-0.2-9.5-0.5-12.9
				C565.2,191.6,563.3,187.3,560,184z"/>
		</g>
		<g>
			<path class="st3" d="M219.8,64.7c0.7,0.7,1,1.4,1,2.3v79.4c0,0.9-0.3,1.7-1,2.3c-0.7,0.7-1.4,1-2.3,1h-5c-0.9,0-1.7-0.3-2.3-1
				c-0.7-0.7-1-1.4-1-2.3v-34.6h-43.4v34.6c0,0.9-0.3,1.7-1,2.3c-0.7,0.7-1.4,1-2.3,1h-5c-0.9,0-1.7-0.3-2.3-0.9
				c-0.7-0.6-1-1.4-1-2.4V67c0-0.9,0.3-1.7,1-2.3c0.7-0.7,1.4-1,2.3-1h5c0.9,0,1.7,0.3,2.3,1c0.7,0.7,1,1.4,1,2.3v33.7H209V67
				c0-0.9,0.3-1.7,1-2.3c0.7-0.7,1.4-1,2.3-1h5C218.3,63.7,219.1,64.1,219.8,64.7z"/>
			<path class="st3" d="M296.1,117.9c0,2-0.1,3.9-0.2,5.7c-0.7,8.4-3.6,15-8.7,20c-5,5-11.9,7.4-20.5,7.4s-15.4-2.5-20.5-7.4
				c-5-5-7.9-11.6-8.7-20c-0.1-0.9-0.1-2.8-0.1-5.7c0-3,0-5,0.1-5.9c0.7-8.4,3.5-15,8.6-20c5.1-5,11.9-7.4,20.5-7.4
				s15.4,2.5,20.5,7.4c5.1,5,7.9,11.6,8.6,20C296,113.8,296.1,115.8,296.1,117.9z M279.4,100c-3-3.2-7.2-4.8-12.7-4.8
				S257,96.8,254,100s-4.7,7.4-5.2,12.7c-0.1,1-0.1,2.7-0.1,5.3c0,2.5,0,4.1,0.1,5c0.5,5.2,2.2,9.5,5.2,12.7s7.2,4.8,12.7,4.8
				s9.7-1.6,12.7-4.8s4.7-7.4,5.2-12.7c0.2-1.8,0.2-3.5,0.2-5c0-1.6-0.1-3.3-0.2-5.3C284.1,107.4,282.4,103.2,279.4,100z"/>
			<path class="st3" d="M329.4,136.3c1.4,1.9,4.2,2.8,8.2,2.8h6.5c0.9,0,1.7,0.3,2.3,1c0.7,0.7,1,1.4,1,2.3v3.9c0,0.9-0.3,1.7-1,2.3
				c-0.7,0.7-1.4,1-2.3,1h-7.7c-7,0-12.1-1.8-15.4-5.5c-3.3-3.6-4.9-9-4.9-16V96.4H307c-0.9,0-1.7-0.3-2.3-1c-0.7-0.7-1-1.4-1-2.3
				v-3.9c0-0.9,0.3-1.7,1-2.3c0.7-0.7,1.4-1,2.3-1h9.1v-20c0-0.9,0.3-1.7,1-2.3c0.7-0.7,1.4-1,2.3-1h4.5c0.9,0,1.7,0.3,2.3,1
				c0.7,0.7,1,1.4,1,2.3v20h15.6c0.9,0,1.7,0.3,2.3,1c0.7,0.7,1,1.4,1,2.3v3.9c0,0.9-0.3,1.7-1,2.3c-0.7,0.7-1.4,1-2.3,1h-15.6v31.8
				C327.3,131.8,328,134.5,329.4,136.3z"/>
			<path class="st3" d="M391,67c0-0.9,0.3-1.7,1-2.3c0.7-0.7,1.4-1,2.3-1h32.9c6.5,0,11.7,1.2,15.7,3.7s6.9,5.5,8.6,9
				s2.6,7,2.6,10.3c0,4.6-1.1,8.3-3.3,11.1c-2.2,2.8-4.4,4.9-6.5,6.2c3.4,2.3,6.2,5.2,8.4,8.8c2.2,3.6,3.3,7.5,3.3,11.9
				c0,4.3-1,8.3-3.1,12.1s-5.2,6.9-9.3,9.3c-4.1,2.4-9,3.6-14.6,3.6h-34.6c-0.9,0-1.7-0.3-2.3-1c-0.7-0.7-1-1.4-1-2.3V67H391z
				 M402.7,99.6H426c5.4,0,9.5-1.1,12.3-3.2c2.8-2.1,4.2-5.2,4.2-9.2s-1.4-7.1-4.2-9.2c-2.8-2.1-6.9-3.2-12.3-3.2h-23.3V99.6z
				 M402.7,138.7h25.1c5.2,0,9.3-1.3,12.2-4c2.9-2.7,4.4-6,4.4-9.9c0-4-1.4-7.4-4.2-10.1c-2.8-2.7-6.9-4.1-12.4-4.1h-25.1
				L402.7,138.7L402.7,138.7z"/>
			<path class="st3" d="M527.2,117.9c0,2-0.1,3.9-0.2,5.7c-0.7,8.4-3.6,15-8.7,20c-5,5-11.9,7.4-20.5,7.4s-15.4-2.5-20.5-7.4
				c-5-5-7.9-11.6-8.7-20c-0.1-0.9-0.1-2.8-0.1-5.7c0-3,0-5,0.1-5.9c0.7-8.4,3.5-15,8.6-20s11.9-7.4,20.5-7.4s15.4,2.5,20.5,7.4
				c5.1,5,7.9,11.6,8.6,20C527.1,113.8,527.2,115.8,527.2,117.9z M510.5,100c-3-3.2-7.2-4.8-12.7-4.8s-9.7,1.6-12.7,4.8
				s-4.7,7.4-5.2,12.7c-0.1,1-0.1,2.7-0.1,5.3c0,2.5,0,4.1,0.1,5c0.5,5.2,2.2,9.5,5.2,12.7s7.2,4.8,12.7,4.8s9.7-1.6,12.7-4.8
				s4.7-7.4,5.2-12.7c0.2-1.8,0.2-3.5,0.2-5c0-1.6-0.1-3.3-0.2-5.3C515.2,107.4,513.5,103.2,510.5,100z"/>
			<path class="st3" d="M547.3,147.4c-0.6,0.7-1.1,1.2-1.7,1.7s-1.3,0.7-2.2,0.7h-5.7c-0.8,0-1.5-0.3-2.1-0.9
				c-0.6-0.6-0.9-1.2-0.9-2c0-0.7,0.2-1.2,0.5-1.7l22.5-28.1l-21.3-26.7c-0.3-0.5-0.5-1.1-0.5-1.7c0-0.7,0.3-1.4,0.9-2
				c0.6-0.6,1.3-0.9,2.1-0.9h5.9c0.9,0,1.6,0.2,2.2,0.7c0.6,0.5,1.1,1,1.7,1.7l16.3,20.5l16.2-20.5c0.6-0.7,1.1-1.2,1.7-1.7
				c0.6-0.4,1.3-0.7,2.2-0.7h5.7c0.8,0,1.5,0.3,2.1,0.9c0.6,0.6,0.9,1.2,0.9,2c0,0.7-0.2,1.2-0.5,1.7L572,117.3l22.2,27.9
				c0.3,0.5,0.5,1.1,0.5,1.7c0,0.7-0.3,1.4-0.9,2c-0.6,0.6-1.3,0.9-2.1,0.9h-5.9c-0.9,0-1.6-0.2-2.2-0.7c-0.6-0.4-1.1-1-1.7-1.7
				l-17.3-21.7L547.3,147.4z"/>
		</g>
		<line class="st4" x1="328.2" y1="201.5" x2="328.2" y2="218.8"/>
		<line class="st4" x1="547.1" y1="201.5" x2="547.1" y2="218.8"/>
	</g>
	<g id="Layer_2" class="st1">
	</g>
</g>
<g id="Layer_3_1_" class="st0">
	<g class="st1">
		<path class="st5" d="M57.7,79.6c-4.8,3.4-13.8,8.6-13.8,8.6l15.7,1.4c1.2,0.1,2.1-0.6,2.5-1.8c1.1-3.9,3.4-12.3,3.3-15.4
			c-0.1-4.2-5-2.4-4.6,0C61,74.7,62.9,76.3,57.7,79.6z"/>
		<path class="st5" d="M50.3,127l-0.1-8.6c0-1.9-0.9-2.6-2.8-2.7l-35.5-2.3c-1.6,0-2.9,1.1-3,2.9l-0.1,6.4l0.3,7
			c0,1.6,1.4,2.9,3,2.8l34.8-1.8C48.6,130.6,50.2,129,50.3,127z"/>
		<path class="st5" d="M12.1,110.7l34.5,2.5c2.3,0.1,4.3-1.3,4.8-3.4L54.8,98c0.9-2.8-1.1-5.7-3.9-6l-37.8-5.2
			c-2.9-0.5-5.4,1.9-5.4,4.6l0.1,14.3C7.8,108.4,9.8,110.5,12.1,110.7z"/>
		<path class="st5" d="M21.7,86.2c5.7,0.8,13.7,1.4,17.4,1.3c0.5,0,0.9-0.7,0.5-1.1c-1.2-1.4-3.5-3.9-7-5.6c0,0-2.7-0.5-1.8-3.5
			c0.8-3.1,2.3-6.5,2.3-6.5l1.3-4.1c0.4-1.5-0.5-3-1.9-3.4c-4-0.7-10.9-2.1-13.3-2.6c-1.3-0.2-3.5-1-5.5-1.6c-3.1-0.8-6.2,1.1-6.9,4
			L4,75.5c-1,4,2.3,7.4,6.3,8C14.2,84.3,18.5,85.8,21.7,86.2z"/>
		<path class="st5" d="M15.4,58.6l18.5,2.6c1.6,0.2,3.3-0.7,3.8-2.3l5.3-16.4c0.5-1.3-0.5-2.8-1.9-2.9c-2.8-0.3-6.8-0.8-9-1.4
			c-2.1-0.5-7.1-1.5-11.2-2.4c-3.1-0.6-6,1.5-6.6,4.5l-2.3,13C11.3,55.9,12.9,58.2,15.4,58.6z"/>
		<path class="st5" d="M205.2,206.3c-1.2-12-3.4-24.3-9.8-34.5c-6.4-10.2-17.8-18.1-29.8-17.2l0.5,9c-3.9-7.1-8.7-14.9-15.6-18.3
			l2-2.1c0,0,0.3-2.3-4.4-6s-24.3-17.1-32.4-23l-3-1.8c0,0-0.4-0.4-1.1-1.8c-0.7-1.4-3.4-19-6.3-28.7c-2.9-9.7-5.3-29.2-5.3-29.2
			s-0.9-5.8-4.4-7.6c-3.5-1.8-29.2-9.4-43.4-8.7c0,0-4.5-0.7-7,5.7C43,48.6,38,59.8,33.1,75.6c0,0-1.7,2.6,1.6,4.9
			c3.2,2.3,5.7,4.9,9.6,3.2c3.9-1.7,9.7-3.4,14.1-8.6c0,0,1.2-0.4,1.1-2.8c0-1.9-0.7-7.4-0.4-10.7c0.1-0.9,1.2-1.2,1.7-0.4
			c2.3,2.7,7.2,7.4,13.6,3.1c0,0,1,1.4-0.6,3.6c-1.5,2.2-2.3,4-2.7,6.7c0,0-2.5,4.3-3.2,6s0.1,4.2,0.1,4.2l9.9,44.5
			c0,0,2.1,3,13.3-1.8c0.4-0.1,0.8,0.2,0.4,0.7c-0.6,0.9-1.7,2.3-3.2,3.9c-0.8,0.8-1,2.1-0.2,3.2c2.6,3.8,8.8,12.5,11.6,14.7
			c3.5,2.8,4.1,4.7,4.1,4.7l7.4,8c0.4,0.4-0.2,1.1-0.6,0.7c-2.2-2.1-4.1-3.9-4.9-4.9c-1.9-2.6-17.4-17.3-17.4-17.3s-1-2-4.3-0.7
			c-1.2,0.4-2.4,0.9-3.4,1.1c-1.1,0.3-2.1-0.7-1.6-1.8c0.4-0.9,0.6-1.7,0.6-2.5c-0.1-2.1-3.9-9.2-3.9-9.2l-6.4-12.5L66,90.9
			c-0.1-0.7-0.9-0.9-1.3-0.2l-13.2,21.5l0,16.8c-0.1,1.5-0.9,2.8-2.3,3.2l-0.3,0l-26.2,1.7l23.8,13.5l9.8,5.4c0,0,2,0.9,4.9,1.1
			s5.3,0.7,5.3,0.7s4.3,1.2,6.5,0.5s12.9,9.5,12.9,9.5l15.2,14.4c0,0,3.4,2.4,5.3,3.7c0.9,0.6,1.9,1.5,2.7,2.3
			c0.3,0.3,0.8,0.5,1.3,0.6c1.5,5.2,4.6,10.1,7.6,14.7c10.7,16.4,22,33.3,38.7,43.5c10.9,6.7,25.6,10,36.3,2.8
			C205.4,238.6,206.7,221.1,205.2,206.3z"/>
	</g>
</g>
<g id="Layer_4">
	<path class="st5" d="M145.2,102.1c3.8,1.8,7.9,3.3,12,4.5c0.9,0.3,2.3,0,2.6-0.3c0.3-1.2-0.3-2.1-1.5-2.7c-2.1-0.9-4.1-1.8-6.2-3
		c-3.8-2.7-7.3-5.4-11.2-8c-1.8-1.2-3.5-2.4-5-3.9c-0.9-0.6-1.8-1.5-2.6-2.4c-1.2-1.2-2.3-1.2-3.5,0c-1.2,1.2-2.6,2.4-3.8,3.9
		c-5.3-2.1-9.1-5.9-11.2-11.3c-1.5-3.9-2.9-7.7-4.7-11.6c-3.8-8.3-7.9-16.7-14.1-23.5C91.8,39,88.6,33.4,85,28
		c-2.9-4.5-6.8-8-12.3-9.5c-7-1.8-13.8-3.9-20.6-6.5c-5.3-1.8-9.7-1.5-14.1,1.8c-1.2,0.9-2.3,0.9-3.5,0.3c-2.6,0.9-4.1,0.6-5.6,0.6
		c-6.2-0.9-11.7-0.3-16.7,3.6c-2.3,1.8-3.5,4.2-3.2,7.1c0.3,2.7,0,5.4,0.6,7.7c0.9,3,1.5,5.9,4.1,8.3c1.8,1.5,1.5,2.4-0.6,3.6
		c-6.5,2.7-6.8,8.3-6.2,13.7c0.3,1.5,1.8,2.7,2.9,3.9c1.5,0.6,2.9,1.8,4.4,3.3c-1.2,1.2-2.1,2.4-3.2,3.6c-1.2,1.2-1.2,2.7-1.2,4.5
		c0,5.7,2.9,9.2,6.8,12.8c0.6,0.6,1.2,0.9,1.8,1.5c0,0,0,0,0,0.3c-0.9,0.9-2.1,1.8-2.6,3c-0.9,2.7-0.9,5.4,0,8
		c1.2,3.9,4.1,4.8,7.3,5.7c7,2.4,13.8,5.1,20.3,8.9c4.1,2.4,7.3,6.2,10.9,9.2c4.4,3.9,8.8,8,13.8,11c3.8,2.4,8.5,3,12.9,4.5
		c5,1.5,10,1.8,15,0.6c2.1-0.6,4.1,0,5.6,2.1c1.8,2.4,4.1,4.5,6.2,6.8c-2.6,3.6-2.9,8-3.2,12.2c-0.6,4.5-0.6,9.2-0.3,13.7
		c0,2.1,0.6,4.2,1.2,5.9c0.6,1.8,2.1,2.7,3.8,3.6c6.8,3.3,13.2,6.5,20,9.8c5.9,2.7,12,5.1,17.9,7.1c2.1,0.9,2.3,0,2.6-2.4
		c-9.7-5.7-19.1-11-28.5-16.7c-0.3-0.3-0.6-0.3-0.9-0.6c-0.6-0.6-1.8-1.2-0.9-2.1c0.3-0.3,1.5,0,2.1,0.3c6.2,3.3,12.6,6.8,18.8,10.1
		c0.5,0.3,1.3,0.5,1.9,0.6c2.7,1.4,5.4,2.8,8.1,4.2c0.7,0.3,1.4,0.7,2.1,0.6c0.7-0.1,1.4-0.8,1.1-1.5l-4.4-3.6
		c-1.8-0.5-3.6-0.9-5.3-1.4c-0.1-0.3-0.2-0.5-0.5-0.7c-2.9-2.1-6.2-3.9-9.4-5.9c-3.2-2.1-6.8-3.9-10-5.9c-0.6-0.3-1.2-0.9-1.5-1.5
		c-0.3-0.3-0.3-1.2,0-1.8c0.3-0.3,1.2-0.3,1.5,0c2.1,1.5,4.1,3,6.2,4.5c4.4,3,8.8,6.2,14.4,7.1c0.3,0,0.5,0,0.8,0
		c0.3,0.2,0.7,0.5,1,0.7c2.5,1.8,5,3.5,7.5,5.3c0.9,0.6,1.8,1.2,2.9,1.1c1.3-0.2,2.2-1.6,2.3-2.9c0.1-1.3-0.5-2.6-1-3.8l-5.8-1.6
		c-2.2-0.2-4.4-0.4-6.6-0.6c-0.6-0.7-1.2-1.4-1.9-1.8c-4.1-2.4-8.2-4.8-12.3-7.1c-2.3-1.2-4.4-2.7-6.5-4.2c-0.9-0.6-1.2-1.5-0.3-2.1
		c0.3-0.3,1.5-0.3,1.8,0c4.4,3.6,9.7,6.2,15,8.6c0.9,0.3,2.1,0.9,2.9,0.9c0.5,0,0.9-0.1,1.4-0.2c2.5,2.4,5.9,4,9.3,4.3
		c0.6,0.1,1.2,0.1,1.7-0.3c0.5-0.4,0.6-1.2,0.4-1.8c-0.2-0.6-0.7-1.1-1.1-1.6l-1.7,0.7c-2.4-0.7-4.9-1.4-7.3-2c0-0.2,0-0.3,0-0.5
		c-1.2-0.6-2.3-1.5-3.5-2.1c-5.3-3-10.6-6.2-15.6-9.2c-2.1-1.2-2.1-1.5-0.9-4.2c0.6,0.6,1.5,0.9,2.1,1.5c5.9,4.5,12,7.7,19.1,10.4
		c1.5,0.6,2.1-0.3,2.6-1.2c0.6-1.5-0.6-1.5-1.5-1.8c-5.6-1.8-10-5.1-14.7-8.3c-2.1-1.5-4.1-2.4-5.9-3.9c-0.3-0.3-0.3-0.9-0.6-1.2
		c0.3,0,0.9-0.6,1.2-0.3c1.2,0.6,2.3,1.2,3.2,1.5c5.6,3,10.9,5.7,16.4,8.6c0.9,0.6,2.1,0.6,3.2,0.6c0,0,0-0.3,0.3-0.3
		c-0.3-0.3-0.3-0.6-0.6-0.6c-5.3-3.3-10.3-6.8-15.6-9.8c-1.8-1.2-3.8-1.8-5.9-2.7c-1.2-0.6-1.5-1.2-0.9-2.4c0.6-1.5,1.5-0.6,2.1,0
		c6.5,3.3,13.2,6.8,19.7,10.1c0.6,0.3,1.8,0.3,2.3,0.3c0-0.3,0-0.3,0.3-0.6c-0.3-0.3-0.6-0.6-0.9-0.9c-5-3-10-5.9-15.3-9.2
		c-1.8-0.9-3.5-2.1-5.3-3c-2.1-0.9-2.1-1.8-0.9-3.9c2.6,1.2,5,2.4,7.6,3.6c4.7,2.1,9.4,4.2,14.1,6.2c0.6,0.3,1.2,0,2.1,0.3
		c0-0.3,0-0.3,0.3-0.6c-0.9-0.6-1.8-1.2-2.6-1.8c-6.5-3.6-12.9-7.1-19.1-11c-0.6-0.3-0.9-1.5-1.2-2.1c0.3-0.3,0.3-0.3,0.6-0.6
		c1.8,0.9,3.2,1.8,5,2.7c3.8,2.1,7.6,4.2,11.7,6.2c1.5,0.6,2.9,0.9,4.7,1.5c0-0.3,0.3-0.3,0.3-0.6c-1.8-1.2-3.5-3-5.6-3.9
		c-4.7-2.7-9.4-5.1-14.1-7.4c-1.8-0.9-1.8-1.2-0.9-3c7,3.3,14.1,6.5,21.1,9.5c0.3-0.3,0.3-0.6,0.6-0.9c-1.5-0.9-3.2-2.1-4.7-3
		c-5-3-10-5.9-14.7-8.6c-1.2-0.6-1.5-1.5-0.6-3c6.2,3,12.3,6.5,19.1,8c0-0.3,0.3-0.3,0.3-0.6c-0.3-0.3-0.6-0.6-0.9-0.9
		c-5.6-3.3-10.9-6.5-16.4-9.8c-0.6-0.3-0.6-1.5-1.2-2.1c0.6,0,1.5,0,2.1,0c6.2,2.7,12,5.7,18.2,8.3c0,0,0.3,0,1.2-0.3
		c-1.2-0.9-2.1-1.5-2.6-2.1c-5.3-3.3-10.6-6.5-15.9-9.8c-0.9-0.6-2.1-1.2-1.2-3c6.2,3.9,12,8.3,19.4,9.5c0-0.3,0.3-0.3,0.3-0.6
		c-0.9-0.6-1.8-1.5-2.9-2.1c-5-3-10-5.9-14.7-9.2c-0.3-0.3-0.9-0.3-1.2-0.9c-0.3-0.6-0.3-1.2-0.6-1.8c0.6,0,1.2-0.3,1.5,0
		c2.3,1.2,4.7,3,7,4.2c2.9,1.5,5.9,2.7,8.8,3.9c0.6,0.3,1.5,0,2.1,0.3c0-0.3,0-0.3,0.3-0.6c-6.5-3.9-12.9-8-19.4-11.9
		c0-0.3,0.3-0.3,0.3-0.6c6.2,3.6,12,7.7,19.4,6.8c-7-3-13.5-6.8-19.7-11.3c0,0,0-0.6,0-0.9C141.4,100,143.2,101.5,145.2,102.1z
		 M128.5,92.9c0.3-0.6,0.6-1.2,1.2-1.2c0.3,0,0.9,0.6,1.2,0.9c0.3,1.2,0.9,2.7,1.5,3.9l-0.3,0.3c-1.2-0.9-2.3-1.5-3.2-2.4
		C128.5,94,128.2,93.2,128.5,92.9z M14.5,31.3c-2.6-3.6-2.9-7.1-0.6-10.7c1.2-1.8,5-3.9,7-3.6c3.2,0.6,6.5,1.5,10,2.1
		c-2.1,2.1-2.1,2.1-4.7,1.8c-0.9,0-1.8,0.3-2.9,0.3c0.3,0.9,0.6,1.8,1.2,3C21.3,26.5,18.1,28.9,14.5,31.3z M27.2,29.5
		c0.3,0.6,0.6,1.2,0.3,1.8c-1.8,3-6.2,3.9-9.4,1.8c2.6-2.1,5.3-3.9,7.6-5.7C26.3,28.3,26.9,28.9,27.2,29.5z M13.9,58.7
		c-0.9-0.6-2.1-1.2-2.3-2.1c-2.1-5.1,1.8-10.7,7-10.7c4.4,0,8.8,0.6,12.9,0.9c4.7,0.6,9.4,1.2,14.1,1.8c4.1,0.6,7.9,1.2,12,2.1
		c3.8,0.9,6.5,6.2,5.3,10.1c0,0.3-0.3,0.9-0.6,0.9c-2.6,1.5-5.3,1.5-7.6,1.5c-0.3-2.7-0.3-5.1-0.6-7.7c1.2,0.6,2.3,0.9,3.5,1.2
		c0.9,0.3,2.1,0.6,2.9,0.3c0.9,0,1.2-0.9,0.3-1.8c-2.3-2.1-5-3.3-8.5-2.7c-1.5,0.3-2.3,1.8-2.1,3c0.3,2.1,0.6,4.2,0.9,6.2
		c0,0.3-0.6,1.2-0.9,1.2c-2.1,0.3-4.4,0.3-6.2,0.6c-0.3-2.4-0.6-4.2-0.9-6.2c-0.3,0-0.6,0-0.9,0c-0.6,1.5-1.2,3-1.8,4.2
		c-0.6,1.2-1.2,1.8-2.6,1.5c-5.3-0.3-10.6-0.6-15.9-1.2c-4.1-0.3-5.6-2.1-5.6-6.5c0-0.6,0-1.2-0.3-1.8c-0.3,0-0.6,0-0.9-0.3
		C15.1,55.4,14.5,56.9,13.9,58.7z M43.6,42.9c0-0.3,0.6-1.2,1.2-1.8c0.3,0,0.3,0,0.6,0.3c0.3,0.9,0.6,1.5,0.6,2.4
		c-0.3,0.3-0.3,0.3-0.6,0.6C44.8,43.8,43.9,43.5,43.6,42.9z M48.6,40.5c1.8,0.9,2.9,1.8,2.1,3.9C49.2,44.1,48.3,42.6,48.6,40.5z
		 M18.1,78.9v-0.3c-0.3-0.3-0.9-1.2-0.9-1.2c-0.6,0.3-1.2,0.6-1.8,1.2c0.3-0.3,0.6,0.3,0.6,0.9c-0.3,0-0.3,0.3-0.6,0.3
		c-0.9-1.2-2.1-2.7-2.1-3.9c0-1.8,0-4.5,1.2-5.4c2.6-2.7,6.5-3.6,10.3-3c7.3,0.9,14.7,1.8,22.3,0.9c3.5-0.3,6.8-0.6,10.3-0.6
		c3.5,0,5.6,1.8,6.5,5.7c0.6,2.7-1.8,5.9-3.8,6.8c-2.3,0.9-4.7,2.1-7,2.7c-3.2,0.6-6.2,0.9-9.4,1.5c0.3-2.4,0.3-4.5,0.3-6.5
		c0-0.3-0.3-0.9-0.6-1.2c-0.6,0.3-1.2,0.3-1.5,0.6c-0.3,0.3-0.3,0.9-0.6,1.5c-0.6,2.1-1.2,3.9-1.8,5.7c-0.9,0-1.5,0-2.3,0
		c-4.7-0.3-9.4-0.9-14.1-1.2C19.5,83,18.9,82.1,18.1,78.9z M40.4,100.6c0-0.9,0-1.8-0.3-2.4c-0.3-0.3-0.9-0.3-1.5-0.6
		c-0.6,1.2-0.9,2.1-1.2,3.6c-0.3,0-0.9,0-1.5,0.3c-4.4,0.6-9.1,0.3-13.5-0.9c-1.8-0.6-3.2-1.5-3.8-3c-0.6-2.1-0.9-5.1,1.2-6.2
		c2.1-1.5,4.7-2.4,7.3-2.7c5-0.6,10-0.3,15-0.6c3.8,0,7.6-0.6,11.5-0.6c0.9,0,1.8,0.6,2.3,1.2c1.5,2.1,0.3,5.9-1.8,7.1
		c-3.8,2.4-6.5,0.9-7-3.3c-0.3-1.8,0.6-2.1,2.1-2.4c1.5,0,2.6,0,4.1,0c0.6,0,1.2-0.3,1.8-0.3c0-0.3,0-0.3,0.3-0.6
		c-0.3-0.3-0.6-0.6-0.9-0.6c-2.1-0.3-4.4-0.9-6.5-0.6c-3.5,0.6-4.7,3.3-2.9,6.5c0.9,1.5,1.8,2.7,2.6,4.5
		C45.1,99.7,42.7,100,40.4,100.6z M120.9,160.1c-2.1,5.7-4.1,11.3-6.2,16.7c-0.3,0.6-0.9,1.5-1.5,2.1c-2.1,2.1-3.8,1.5-4.7-1.8
		c3.2,0,5.6-1.5,7-4.5c0.9-1.5,1.5-3.3,2.1-4.8c0.9-3.3,2.1-6.2,2.9-9.2c0.3,0,0.3,0,0.6,0C121.2,159.2,121.2,159.8,120.9,160.1z
		 M132.3,116.1c-0.6,4.5-1.8,8.9-2.9,13.4c-2.1,8-4.1,16.1-6.2,24.1c-0.3,1.2-0.9,2.4-1.5,4.2c-2.3-2.7-4.7-5.1-6.8-7.1
		c-3.2-3.9-7-7.4-9.7-11.6c-1.5-2.4-3.2-3.9-5.6-5.7c-0.9,1.5-1.8,1.2-2.9,0.6c-2.6-1.5-5-3-7.6-4.5c-0.6-0.3-1.5-0.6-2.1-0.6
		c0,0.3-0.3,0.6-0.3,0.6c1.2,1.5,2.1,3,3.2,4.5c-0.3,0-0.3,0.3-0.6,0.3c-2.9-2.4-5.6-5.1-8.8-7.7c0.6,2.1,0.9,3.9,1.2,5.7
		c-2.9-1.2-3.8-5.1-7.6-5.9c0.6,1.8,0.9,3.3,1.5,4.8c-3.2-1.8-4.1-5.7-7.9-6.8c0.3,1.5,0.6,2.4,0.9,3c-0.3,0-0.3,0.3-0.6,0.3
		c-1.5-1.8-3.2-3.6-5-5.4c-0.9,1.2-1.5,0.9-2.3,0c-0.9-0.9-2.1-1.8-2.9-2.7c-2.1-2.4-5.3-3.6-6.5-6.8c-0.3-0.9-0.9-3.9-3.5-0.9
		c-1.2-2.1-2.3-3.9-3.5-5.7c4.1-1.8,7.9-3.6,11.7-5.1c0.9,2.1,1.2,4.5,3.5,5.9c-0.3-4.8-1.8-9.2,1.2-13.4c3.2,4.5,4.4,9.8,7.9,13.4
		c0.3,0,0.3-0.3,0.6-0.3c-0.9-4.2-1.8-8.3-2.6-12.5c0.3,0,0.3,0,0.6-0.3c0.3,0.3,0.9,0.6,1.2,1.2c1.8,2.1,3.2,4.2,5,5.9
		c1.5,1.8,3.2,3,4.4,4.8c1.8,2.1,3.8,3.3,6.5,3.9c2.6,0.9,5.9,0.9,8.5,1.2c0.3,0,0.6-0.3,1.2-0.6c0-0.3,0-0.3,0.3-0.6
		c-4.1-1.5-8.5-1.8-11.5-5.4c-2.6-3.6-5.6-6.5-8.2-10.1c-2.6-3.6-5.3-6.8-5-11.6c2.1,1.5,3.8,3.3,6.2,4.5c1.8,0.9,3.8,0.6,5.9,0.9
		c0.3,0,0.9-0.6,1.5-1.2c-0.9-0.3-1.5-0.3-1.8-0.6c-2.1-0.9-4.1-1.5-5.9-2.7c-4.4-3-5.9-7.4-7.3-12.5c-0.3-1.8-1.2-3.3-1.2-5.1
		c0-2.7,0.6-5.1,0.9-7.7c0.6-2.7,2.1-4.5,4.4-5.9c0.9-0.6,1.8-1.2,2.9-2.1c-4.4-2.4-6.8,0.3-9.1,2.7c-1.2-2.1-0.9-3.3,0.9-5.4
		c0.3-0.3,0.3-0.9,0.6-1.5c-0.6,0-1.2-0.6-1.5-0.3c-1.2,0.6-2.3,1.5-3.5,2.4c-1.5-1.2-3.5-2.1-4.7-3.9c-1.5-2.1-2.3-4.5-1.5-7.4
		c0.3-0.6,0-1.2,0-1.8c0-0.3-0.6-1.2-0.6-1.2c-0.6,0-0.9,0.3-1.2,0.9c-0.6,0.6-0.9,1.5-1.5,2.4c-0.3,0-0.3,0-0.6,0
		c-0.3-1.5-0.3-2.7-0.6-4.2c-0.3-1.2-0.3-3-2.3-3.6c0.3,2.4,0.6,4.5,0.6,6.2c-1.2-0.9-1.5-1.8-2.3-2.7c-0.3-0.6-1.2-0.9-1.8-1.5
		c-0.3,0.9-0.3,1.5-0.6,2.4c-0.3,0.9,0,2.1-0.3,2.7c-2.9,3.3-6.8,5.4-11.2,5.9c-4.1,0.6-7.9-0.3-11.5-1.8c-1.8-0.9-3.8-1.8-5-4.2
		c4.7,2.1,7.9,0,11.2-3c2.9-3,2.3-5.4-1.8-6.8c4.4-3.3,8.5-6.5,12.3-9.5c1.8-1.5,3.8-1.8,5.9-1.2c3.5,0.9,7,2.1,10.3,3.3
		c4.7,1.8,9.1,4.2,14.1,5.1c1.8,0.3,3.8,0.9,5.6,1.8c3.5,2.1,5.9,5.4,7.9,9.2c2.1,3.6,4.1,7.4,6.8,10.1c5.3,5.4,9.4,11.6,12.6,18.4
		c2.9,5.7,5,11.9,7.6,17.5c2.1,4.2,4.4,8.3,8.5,11.3c2.3,1.5,4.4,3.3,6.8,4.8c2.1,1.2,3.8,3.3,6.5,2.4c0.3,0,0.6,0.6,0.9,0.9
		C133.5,105.9,133.2,111,132.3,116.1z"/>
</g>
<g id="Layer_2_1_">
	<rect x="147" y="71" class="st5" width="506.3" height="240"/>
	<g>
		<path class="st3" d="M218.2,153.8c-3.5,3.7-8.6,5.5-15.1,5.5c-4.1,0-7.7-0.8-10.8-2.4c-3.1-1.6-5.4-3.7-7.1-6.3
			c-1.6-2.6-2.5-5.4-2.6-8.4c0-0.5,0.2-0.9,0.5-1.2c0.3-0.3,0.8-0.5,1.2-0.5h4c0.9,0,1.5,0.6,1.7,1.7c0.6,3,1.9,5.4,4,7.2
			c2.1,1.9,5.1,2.8,8.9,2.8c4.5,0,7.8-1.2,9.8-3.6c2-2.4,3.1-5.8,3.1-10.4v-28.1h-27.4c-0.6,0-1.1-0.2-1.5-0.6
			c-0.4-0.4-0.6-0.9-0.6-1.5v-2.9c0-0.6,0.2-1.1,0.6-1.5c0.4-0.4,0.9-0.6,1.5-0.6h32.7c0.6,0,1.1,0.2,1.5,0.6
			c0.4,0.4,0.6,0.9,0.6,1.5v33.9C223.5,145.2,221.7,150.1,218.2,153.8z"/>
		<path class="st3" d="M244.2,151.4h26.6c0.6,0,1.1,0.2,1.5,0.6c0.4,0.4,0.6,0.9,0.6,1.5v2.9c0,0.6-0.2,1.1-0.6,1.5
			c-0.4,0.4-0.9,0.6-1.5,0.6h-32c-0.6,0-1.1-0.2-1.5-0.6c-0.4-0.4-0.6-0.9-0.6-1.5v-51.2c0-0.6,0.2-1.1,0.6-1.5
			c0.4-0.4,0.9-0.6,1.5-0.6h31.4c0.6,0,1.1,0.2,1.5,0.6c0.4,0.4,0.6,0.9,0.6,1.5v2.9c0,0.6-0.2,1.1-0.6,1.5
			c-0.4,0.4-0.9,0.6-1.5,0.6h-26v16.7h24.3c0.6,0,1.1,0.2,1.5,0.6c0.4,0.4,0.6,0.9,0.6,1.5v2.9c0,0.6-0.2,1.1-0.6,1.5
			c-0.4,0.4-0.9,0.6-1.5,0.6h-24.3V151.4z"/>
		<path class="st3" d="M318.6,107.1c3.6,2.7,5.4,6.8,5.4,12.3c0,4.1-1,7.5-3.1,10.1c-2.1,2.6-4.8,4.4-8.3,5.5l12,20.9
			c0.2,0.3,0.2,0.6,0.2,0.9c0,0.5-0.2,0.9-0.5,1.2c-0.3,0.3-0.8,0.5-1.2,0.5h-3.4c-1.5,0-2.6-0.7-3.4-2.1l-11.5-20.2h-13.6v20.2
			c0,0.6-0.2,1.1-0.6,1.5c-0.4,0.4-0.9,0.6-1.5,0.6h-3.3c-0.6,0-1.1-0.2-1.5-0.6c-0.4-0.4-0.6-0.9-0.6-1.5v-51.2
			c0-0.6,0.2-1.1,0.6-1.5c0.4-0.4,0.9-0.6,1.5-0.6h19.2C310.5,103,315.1,104.4,318.6,107.1z M304.5,129c8,0,12-3.2,12-9.6
			c0-3.3-1-5.6-3-7.1c-2-1.5-5-2.2-9-2.2h-13.4V129H304.5z"/>
		<path class="st3" d="M373.9,155.3c0.5,0.5,0.8,1,0.8,1.4c0,0.5-0.2,0.9-0.5,1.2c-0.3,0.3-0.8,0.5-1.2,0.5H368
			c-1.1,0-2.1-0.4-2.9-1.2l-22.4-21.4v20.5c0,0.6-0.2,1.1-0.6,1.5c-0.4,0.4-0.9,0.6-1.5,0.6h-3.3c-0.6,0-1.1-0.2-1.5-0.6
			c-0.4-0.4-0.6-0.9-0.6-1.5v-51.2c0-0.6,0.2-1.1,0.6-1.5c0.4-0.4,0.9-0.6,1.5-0.6h3.3c0.6,0,1.1,0.2,1.5,0.6
			c0.4,0.4,0.6,0.9,0.6,1.5v18.5l21.2-19.4c0.8-0.8,1.7-1.2,2.9-1.2h4.6c0.5,0,0.9,0.2,1.2,0.5c0.3,0.3,0.5,0.8,0.5,1.2
			c0,0.4-0.3,0.9-0.8,1.4l-25.5,23.4L373.9,155.3z"/>
		<path class="st3" d="M383.3,157.9c-0.4-0.4-0.6-0.9-0.6-1.5v-51.2c0-0.6,0.2-1.1,0.6-1.5c0.4-0.4,0.9-0.6,1.5-0.6h3.3
			c0.6,0,1.1,0.2,1.5,0.6c0.4,0.4,0.6,0.9,0.6,1.5v51.2c0,0.6-0.2,1.1-0.6,1.5c-0.4,0.4-0.9,0.6-1.5,0.6h-3.3
			C384.3,158.5,383.8,158.3,383.3,157.9z"/>
		<path class="st3" d="M438.6,157.9c-0.5-0.4-1-1-1.4-1.7l-25.8-38.8v39c0,0.6-0.2,1.1-0.6,1.5c-0.4,0.4-0.9,0.6-1.5,0.6H406
			c-0.6,0-1.1-0.2-1.5-0.6c-0.4-0.4-0.6-0.9-0.6-1.5v-51.2c0-0.6,0.2-1.1,0.6-1.5c0.4-0.4,0.9-0.6,1.5-0.6h2.8
			c0.7,0,1.3,0.2,1.7,0.6c0.5,0.4,1,1,1.4,1.7l25.8,38.8v-39c0-0.6,0.2-1.1,0.6-1.5c0.4-0.4,0.9-0.6,1.5-0.6h3.3
			c0.6,0,1.1,0.2,1.5,0.6c0.4,0.4,0.6,0.9,0.6,1.5v51.2c0,0.6-0.2,1.1-0.6,1.5c-0.4,0.4-0.9,0.6-1.5,0.6h-2.8
			C439.7,158.5,439.1,158.3,438.6,157.9z"/>
		<path class="st3" d="M491.2,104.7c3.3,1.7,5.8,3.7,7.5,6.1c1.7,2.4,2.6,4.6,2.7,6.7c0.1,0.5-0.1,0.9-0.5,1.2
			c-0.4,0.3-0.8,0.5-1.3,0.5h-3.3c-1.2,0-2-0.3-2.3-0.9c-1.5-3-3.4-5.2-5.5-6.7c-2.1-1.5-5.2-2.3-9.1-2.3c-4.4,0-8,1.3-10.8,3.8
			c-2.7,2.5-4.2,6.1-4.4,10.8c-0.1,1.6-0.1,3.8-0.1,6.6c0,2.8,0,5,0.1,6.6c0.2,5,1.6,8.7,4.3,11.3c2.7,2.5,6.3,3.8,10.8,3.8
			c4.6,0,8.3-1.2,11-3.6c2.7-2.4,4.1-6.2,4.1-11.4V135h-11.4c-0.6,0-1.1-0.2-1.5-0.6c-0.4-0.4-0.6-0.9-0.6-1.5V130
			c0-0.6,0.2-1.1,0.6-1.5c0.4-0.4,0.9-0.6,1.5-0.6h16.8c0.6,0,1.1,0.2,1.5,0.6c0.4,0.4,0.6,0.9,0.6,1.5v7.5c0,4.2-0.9,8-2.7,11.3
			c-1.8,3.3-4.4,5.9-7.8,7.7c-3.4,1.9-7.5,2.8-12.2,2.8c-7.3,0-12.8-2-16.6-6.1c-3.8-4-5.8-9.3-6-15.7c-0.1-1.6-0.1-3.9-0.1-7
			c0-3.1,0-5.4,0.1-7c0.2-4.1,1.1-7.7,2.7-10.9c1.7-3.2,4.2-5.7,7.5-7.6c3.4-1.9,7.5-2.8,12.4-2.8
			C484,102.2,487.9,103.1,491.2,104.7z"/>
	</g>
	<path d="M79.8,575.9l-12.6,3.7c0,0-2.5,0.5-5.9,0c-3.4-0.5-6.2-0.6-6.2-0.6s-5.2,0.3-7.6-1.1s-17.2,7.5-17.2,7.5L9.2,598
		c0,0-4.5,1.9-7,2.9c-1.2,0.5-2.6,1.3-3.7,2c-1.3,0.8-3.3,0.5-4.1-0.9l-34.9-58.2c0,0,0.2-2.7,6.6-5.7c6.4-3,32.1-13.4,42.9-18.1
		l3.8-1.3c0,0,0.6-0.3,1.7-1.8c1.2-1.5,8.7-20.8,14.5-31.2c5.8-10.4,13.5-32.1,13.5-32.1s2.6-6.4,7-7.5s35.9-3.3,51.9,1.1
		c0,0,5.3,0.4,6.5,8.4c1.2,8,4.1,22.1,5.6,41.4c0,0,1.2,3.4-3.1,5.2c-4.3,1.8-7.8,4.1-11.8,1.2c-4.1-2.9-10.2-6.4-13.9-13.4
		c0,0-1.2-0.8-0.6-3.5c0.5-2.1,2.7-8.3,3.2-12.2c0.1-1.1-1-1.7-1.8-0.9c-3.4,2.5-10.1,6.6-16.3,0.1c0,0-1.5,1.4-0.3,4.3
		s1.6,5.2,1.4,8.4c0,0,1.8,5.6,2.1,7.7s-1.2,4.8-1.2,4.8L48.7,547c0,0-3.1,2.9-14.8-5.5c-0.4-0.3-1,0.1-0.6,0.6
		c0.5,1.2,1.3,3,2.7,5.3c0.7,1.1,0.6,2.7-0.6,3.7c-4,3.6-13.3,12-17.1,13.8c-4.7,2.3-5.9,4.3-5.9,4.3l-10.5,7.3
		c-0.6,0.3,0,1.3,0.6,0.9c3-1.8,5.6-3.4,6.9-4.4c2.9-2.5,24.3-15.3,24.3-15.3s1.6-2,5,0.3c1.2,0.8,2.5,1.6,3.6,2.2
		c1.1,0.6,2.6-0.3,2.3-1.7c-0.2-1.2-0.3-2.1,0-3c0.6-2.4,6.9-9.5,6.9-9.5L62,533.3l10-27.2c0.3-0.7,1.3-0.8,1.6,0.1l9.6,28
		l-4.3,19.2c-0.3,1.7,0.3,3.4,1.8,4.3l0.3,0.1l29.5,8.7L79.8,575.9z"/>
	<path d="M98.1,508.6l-18.3-2.3c-1.4-0.2-2.3-1.2-2.4-2.7c-0.3-4.7-0.7-14.9,0.2-18.5c1.2-4.8,6.3-1.5,5.3,1.2c-1,2.6-3.5,3.9,1.6,9
		C89.1,500.5,98.1,508.6,98.1,508.6z"/>
	<path d="M129.5,557.1l-2.1,7.9c-0.5,1.8-2.3,2.9-4.1,2.5l-39.3-11c-2.1-0.5-3.5-2.8-3-5.1l2.3-9.8c0.5-2.1,1.7-2.8,4-2.4l41.2,6.5
		c1.8,0.5,3,2,2.7,4L129.5,557.1z"/>
	<path d="M128.7,542.5l-40.1-5.9c-2.6-0.5-4.6-2.6-4.6-5.2L83,517.2c-0.3-3.4,2.7-6.2,5.9-5.9l44.7,3.7c3.5,0.2,5.7,3.5,5,6.7
		l-3.8,16.3C134.2,541,131.4,542.9,128.7,542.5z"/>
	<path d="M114.9,491.4l-0.5-5.1c0-1.8,1.3-3.3,3.1-3.4c4.7,0.2,13,0.4,15.9,0.5c1.6,0.1,4.2-0.2,6.7-0.4c3.7-0.2,6.8,2.8,6.9,6.4
		l0.1,15.1c0.1,4.8-4.5,7.8-9.3,7.6c-4.7-0.2-10,0.4-13.8,0.1c-6.7-0.6-16-1.9-20.2-3c-0.6-0.2-0.9-1-0.3-1.4c1.8-1.3,5-3.5,9.5-4.7
		c0,0,3.2,0.2,3-3.6C115.7,495.8,114.9,491.4,114.9,491.4z"/>
	<path d="M138.2,482l-21.8-1.8c-1.9-0.2-3.6-1.7-3.7-3.7l-1.8-20.1c-0.2-1.7,1.2-3,2.9-2.8c3.3,0.3,7.9,0.9,10.7,0.8
		c2.6,0,8.5,0,13.4,0.2c3.7,0.1,6.5,3.2,6.4,6.9l-0.7,15.5C143.7,480,141.2,482.3,138.2,482z"/>
	<g>
		<path class="st6" d="M234.2,175.7c4.3,2.1,7.6,5,10,8.8c2.4,3.7,3.6,7.9,3.6,12.5c0,1.4-0.1,2.8-0.3,4.2c-0.9,5.6-2.3,11.9-4,18.8
			c-2.3,8.7-6.6,15.6-12.7,20.8c-6.2,5.2-14.6,7.8-25.3,7.8c-5.5,0-10.4-1.1-14.7-3.2c-4.3-2.1-7.6-5-10-8.8
			c-2.4-3.7-3.5-7.9-3.5-12.5c0-1.3,0.1-2.7,0.3-4.2c0.8-5.4,2.1-11.7,4-18.8c2.3-8.7,6.5-15.6,12.7-20.8c6.1-5.2,14.5-7.8,25.2-7.8
			C225,172.5,229.9,173.6,234.2,175.7z M225.2,192.1c-1.8-1.8-4.6-2.7-8.3-2.7c-4.2,0-7.6,1.1-10.2,3.3c-2.7,2.2-4.6,5.2-5.7,8.9
			c-0.7,2.3-1.4,5.2-2.2,8.7c-0.7,3.5-1.3,6.5-1.6,9c-0.1,0.5-0.1,1.2-0.1,2.2c0,3.1,0.9,5.5,2.6,7.3c1.8,1.8,4.5,2.7,8.2,2.7
			c4.2,0,7.6-1.1,10.3-3.3c2.7-2.2,4.6-5.2,5.8-8.9c0.9-3.2,1.8-6.8,2.6-10.9c0.8-4.1,1.3-7.1,1.3-9
			C227.9,196.4,227,193.9,225.2,192.1z"/>
		<path class="st6" d="M297.7,246.8c-0.6-0.5-1.1-1.1-1.5-1.9L277.6,209l-7.6,35.7c-0.1,0.8-0.5,1.4-1.2,2c-0.7,0.6-1.4,0.8-2.2,0.8
			h-13.8c-0.8,0-1.4-0.3-1.8-0.8c-0.5-0.6-0.6-1.2-0.5-2l14.6-68.2c0.1-0.8,0.5-1.4,1.2-2c0.7-0.6,1.4-0.8,2.2-0.8h8.9
			c1.8,0,3,0.8,3.8,2.4l18.7,36.1l7.6-35.7c0.1-0.8,0.5-1.4,1.2-2c0.7-0.6,1.4-0.8,2.2-0.8h13.8c0.8,0,1.4,0.3,1.8,0.8
			c0.5,0.6,0.6,1.2,0.5,2l-14.6,68.2c-0.1,0.8-0.5,1.4-1.2,2c-0.7,0.6-1.4,0.8-2.2,0.8h-8.9C299.1,247.5,298.3,247.2,297.7,246.8z"
			/>
		<path class="st6" d="M383.7,231.4c0.4,0.6,0.6,1.2,0.4,2l-2.4,11.2c-0.1,0.8-0.5,1.4-1.2,2c-0.7,0.6-1.4,0.8-2.2,0.8h-48.9
			c-0.8,0-1.4-0.3-1.8-0.8c-0.5-0.6-0.6-1.2-0.5-2l14.6-68.2c0.1-0.8,0.5-1.4,1.2-2c0.7-0.6,1.4-0.8,2.2-0.8h13.8
			c0.8,0,1.4,0.3,1.8,0.8c0.5,0.6,0.6,1.2,0.5,2l-11.5,54.2H382C382.7,230.6,383.3,230.9,383.7,231.4z"/>
		<path class="st6" d="M391,246.6c-0.5-0.6-0.6-1.2-0.5-2l14.6-68.2c0.1-0.8,0.5-1.4,1.2-2c0.7-0.6,1.4-0.8,2.2-0.8h13.8
			c0.8,0,1.4,0.3,1.8,0.8c0.5,0.6,0.6,1.2,0.5,2L410,244.6c-0.1,0.8-0.5,1.4-1.2,2c-0.7,0.6-1.4,0.8-2.2,0.8h-13.8
			C392,247.5,391.4,247.2,391,246.6z"/>
		<path class="st6" d="M471.9,246.8c-0.6-0.5-1.1-1.1-1.5-1.9L451.9,209l-7.6,35.7c-0.1,0.8-0.5,1.4-1.2,2c-0.7,0.6-1.4,0.8-2.2,0.8
			h-13.8c-0.8,0-1.4-0.3-1.8-0.8c-0.5-0.6-0.6-1.2-0.5-2l14.6-68.2c0.1-0.8,0.5-1.4,1.2-2c0.7-0.6,1.4-0.8,2.2-0.8h8.9
			c1.8,0,3,0.8,3.8,2.4l18.7,36.1l7.6-35.7c0.1-0.8,0.5-1.4,1.2-2c0.7-0.6,1.4-0.8,2.2-0.8h13.8c0.8,0,1.4,0.3,1.8,0.8
			c0.5,0.6,0.6,1.2,0.5,2l-14.6,68.2c-0.1,0.8-0.5,1.4-1.2,2c-0.7,0.6-1.4,0.8-2.2,0.8h-8.9C473.4,247.5,472.5,247.2,471.9,246.8z"
			/>
		<path class="st6" d="M524,230.6h33.4c0.8,0,1.4,0.3,1.8,0.8c0.4,0.6,0.6,1.2,0.4,2l-2.4,11.2c-0.1,0.8-0.5,1.4-1.2,2
			c-0.7,0.6-1.4,0.8-2.2,0.8h-50c-0.8,0-1.4-0.3-1.8-0.8c-0.5-0.6-0.6-1.2-0.5-2l14.6-68.2c0.1-0.8,0.5-1.4,1.2-2
			c0.7-0.6,1.4-0.8,2.2-0.8h49.2c0.8,0,1.4,0.3,1.8,0.8c0.5,0.6,0.6,1.2,0.5,2l-2.4,11.2c-0.1,0.8-0.6,1.4-1.3,2
			c-0.7,0.6-1.4,0.8-2.2,0.8h-32.5l-2.4,11.4h30.2c0.8,0,1.4,0.3,1.8,0.8c0.5,0.6,0.6,1.2,0.5,2l-2.4,11.2c-0.1,0.8-0.6,1.4-1.3,2
			c-0.7,0.6-1.4,0.8-2.2,0.8h-30.2L524,230.6z"/>
	</g>
</g>
</svg>
