<?xml version="1.0" encoding="utf-8"?>
<!-- Generator: Adobe Illustrator 21.0.0, SVG Export Plug-In . SVG Version: 6.00 Build 0)  -->
<!DOCTYPE svg PUBLIC "-//W3C//DTD SVG 1.1//EN" "http://www.w3.org/Graphics/SVG/1.1/DTD/svg11.dtd">
<svg version="1.1" id="Layer_1" xmlns="http://www.w3.org/2000/svg" xmlns:xlink="http://www.w3.org/1999/xlink" x="0px" y="0px"
	 viewBox="0 0 250 100" style="enable-background:new 0 0 250 100;" xml:space="preserve">
<style type="text/css">
	.st0{fill:#FFFFFF;}
	.st1{fill:#E0CB4D;}
</style>
<g>
	<path class="st0" d="M37.4,36.6c-2,2.1-4.8,3.1-8.5,3.1c-2.3,0-4.3-0.5-6.1-1.4c-1.7-0.9-3-2.1-4-3.6c-0.9-1.5-1.4-3-1.5-4.7
		c0-0.3,0.1-0.5,0.3-0.7c0.2-0.2,0.5-0.3,0.7-0.3h2.3c0.5,0,0.8,0.3,1,1c0.3,1.7,1.1,3,2.3,4.1c1.2,1.1,2.9,1.6,5,1.6
		c2.5,0,4.4-0.7,5.5-2c1.1-1.4,1.7-3.3,1.7-5.9V11.9H20.6c-0.3,0-0.6-0.1-0.8-0.3c-0.2-0.2-0.3-0.5-0.3-0.8V9.1
		c0-0.3,0.1-0.6,0.3-0.8c0.2-0.2,0.5-0.3,0.8-0.3H39c0.3,0,0.6,0.1,0.8,0.3c0.2,0.2,0.3,0.5,0.3,0.8v19.1
		C40.4,31.7,39.3,34.5,37.4,36.6z"/>
	<path class="st0" d="M52,35.2h15c0.3,0,0.6,0.1,0.8,0.3c0.2,0.2,0.3,0.5,0.3,0.8V38c0,0.3-0.1,0.6-0.3,0.8s-0.5,0.3-0.8,0.3H49
		c-0.3,0-0.6-0.1-0.8-0.3c-0.2-0.2-0.3-0.5-0.3-0.8V9.2c0-0.3,0.1-0.6,0.3-0.8C48.4,8.1,48.6,8,49,8h17.7c0.3,0,0.6,0.1,0.8,0.3
		c0.2,0.2,0.3,0.5,0.3,0.8v1.6c0,0.3-0.1,0.6-0.3,0.8C67.3,11.9,67,12,66.7,12H52v9.4h13.7c0.3,0,0.6,0.1,0.8,0.3
		c0.2,0.2,0.3,0.5,0.3,0.8v1.6c0,0.3-0.1,0.6-0.3,0.8c-0.2,0.2-0.5,0.3-0.8,0.3H52L52,35.2L52,35.2z"/>
	<path class="st0" d="M94,10.2c2,1.5,3,3.8,3,6.9c0,2.3-0.6,4.2-1.7,5.7c-1.2,1.5-2.7,2.5-4.7,3.1l6.8,11.8c0.1,0.2,0.1,0.3,0.1,0.5
		c0,0.3-0.1,0.5-0.3,0.7c-0.2,0.2-0.5,0.3-0.7,0.3h-1.9c-0.8,0-1.5-0.4-1.9-1.2l-6.5-11.4h-7.7V38c0,0.3-0.1,0.6-0.3,0.8
		s-0.5,0.3-0.8,0.3h-1.9c-0.3,0-0.6-0.1-0.8-0.3c-0.2-0.2-0.3-0.5-0.3-0.8V9.2c0-0.3,0.1-0.6,0.3-0.8C74.9,8.1,75.1,8,75.5,8h10.8
		C89.4,7.9,92,8.7,94,10.2z M86,22.6c4.5,0,6.8-1.8,6.8-5.4c0-1.9-0.6-3.2-1.7-4s-2.8-1.2-5.1-1.2h-7.6v10.7H86z"/>
	<path class="st0" d="M125.2,37.4c0.3,0.3,0.5,0.6,0.5,0.8c0,0.3-0.1,0.5-0.3,0.7c-0.2,0.2-0.5,0.3-0.7,0.3h-2.8
		c-0.6,0-1.2-0.2-1.6-0.7l-12.6-12.1V38c0,0.3-0.1,0.6-0.3,0.8s-0.5,0.3-0.8,0.3h-1.9c-0.3,0-0.6-0.1-0.8-0.3
		c-0.2-0.2-0.3-0.5-0.3-0.8V9.1c0-0.3,0.1-0.6,0.3-0.8s0.5-0.3,0.8-0.3h1.9c0.3,0,0.6,0.1,0.8,0.3s0.3,0.5,0.3,0.8v10.4l12-10.9
		c0.5-0.5,1-0.7,1.6-0.7h2.6c0.3,0,0.5,0.1,0.7,0.3c0.2,0.2,0.3,0.5,0.3,0.7c0,0.2-0.2,0.5-0.5,0.8l-14.4,13.2L125.2,37.4z"/>
	<path class="st0" d="M130.5,38.9c-0.2-0.2-0.3-0.5-0.3-0.8V9.2c0-0.3,0.1-0.6,0.3-0.8c0.2-0.2,0.5-0.3,0.8-0.3h1.9
		c0.3,0,0.6,0.1,0.8,0.3c0.2,0.2,0.3,0.5,0.3,0.8V38c0,0.3-0.1,0.6-0.3,0.8s-0.5,0.3-0.8,0.3h-1.9C131,39.2,130.7,39.1,130.5,38.9z"
		/>
	<path class="st0" d="M161.6,38.9c-0.3-0.2-0.6-0.6-0.8-1l-14.5-21.9v22c0,0.3-0.1,0.6-0.3,0.8s-0.5,0.3-0.8,0.3h-1.9
		c-0.3,0-0.6-0.1-0.8-0.3c-0.2-0.2-0.3-0.5-0.3-0.8V9.2c0-0.3,0.1-0.6,0.3-0.8c0.2-0.2,0.5-0.3,0.8-0.3h1.6c0.4,0,0.7,0.1,1,0.3
		c0.3,0.2,0.6,0.6,0.8,1l14.5,21.9v-22c0-0.3,0.1-0.6,0.3-0.8c0.2-0.2,0.5-0.3,0.8-0.3h1.9c0.3,0,0.6,0.1,0.8,0.3
		c0.2,0.2,0.3,0.5,0.3,0.8V38c0,0.3-0.1,0.6-0.3,0.8s-0.5,0.3-0.8,0.3h-1.6C162.3,39.2,161.9,39.1,161.6,38.9z"/>
	<path class="st0" d="M191.3,8.9c1.9,1,3.3,2.1,4.2,3.4c1,1.4,1.5,2.6,1.5,3.8c0.1,0.3-0.1,0.5-0.3,0.7c-0.2,0.2-0.5,0.3-0.7,0.3
		h-1.9c-0.7,0-1.1-0.2-1.3-0.5c-0.8-1.7-1.9-2.9-3.1-3.8s-2.9-1.3-5.1-1.3c-2.5,0-4.5,0.7-6.1,2.1c-1.5,1.4-2.4,3.4-2.5,6.1
		c-0.1,0.9-0.1,2.1-0.1,3.7c0,1.6,0,2.8,0.1,3.7c0.1,2.8,0.9,4.9,2.4,6.4c1.5,1.4,3.6,2.1,6.1,2.1c2.6,0,4.7-0.7,6.2-2
		c1.5-1.4,2.3-3.5,2.3-6.4V26h-6.4c-0.3,0-0.6-0.1-0.8-0.3c-0.2-0.2-0.3-0.5-0.3-0.8v-1.6c0-0.3,0.1-0.6,0.3-0.8
		c0.2-0.2,0.5-0.3,0.8-0.3h9.5c0.3,0,0.6,0.1,0.8,0.3c0.2,0.2,0.3,0.5,0.3,0.8v4.2c0,2.4-0.5,4.5-1.5,6.4c-1,1.9-2.5,3.3-4.4,4.3
		c-1.9,1.1-4.2,1.6-6.9,1.6c-4.1,0-7.2-1.1-9.4-3.4c-2.1-2.3-3.3-5.2-3.4-8.9c-0.1-0.9-0.1-2.2-0.1-3.9c0-1.7,0-3,0.1-3.9
		c0.1-2.3,0.6-4.3,1.5-6.1c1-1.8,2.4-3.2,4.2-4.3c1.9-1.1,4.2-1.6,7-1.6C187.2,7.5,189.4,8,191.3,8.9z"/>
</g>
<g>
	<path class="st1" d="M46.4,48.9c2.4,1.2,4.3,2.8,5.6,5c1.4,2.1,2,4.5,2,7c0,0.8-0.1,1.6-0.2,2.4c-0.5,3.2-1.3,6.7-2.3,10.6
		c-1.3,4.9-3.7,8.8-7.2,11.7C41,88.6,36.2,90,30.2,90c-3.1,0-5.9-0.6-8.3-1.8c-2.4-1.2-4.3-2.8-5.6-5c-1.4-2.1-2-4.5-2-7
		c0-0.7,0.1-1.5,0.2-2.4c0.5-3,1.2-6.6,2.3-10.6c1.3-4.9,3.7-8.8,7.2-11.7c3.4-2.9,8.2-4.4,14.2-4.4C41.2,47.1,44,47.7,46.4,48.9z
		 M41.3,58.2c-1-1-2.6-1.5-4.7-1.5c-2.4,0-4.3,0.6-5.8,1.9c-1.5,1.2-2.6,2.9-3.2,5c-0.4,1.3-0.8,2.9-1.2,4.9c-0.4,2-0.7,3.7-0.9,5.1
		c-0.1,0.3-0.1,0.7-0.1,1.2c0,1.7,0.5,3.1,1.5,4.1c1,1,2.5,1.5,4.6,1.5c2.4,0,4.3-0.6,5.8-1.9s2.6-2.9,3.3-5c0.5-1.8,1-3.8,1.5-6.1
		c0.5-2.3,0.7-4,0.7-5.1C42.8,60.6,42.3,59.2,41.3,58.2z"/>
	<path class="st1" d="M82.2,89c-0.3-0.3-0.6-0.6-0.8-1.1L70.9,67.7l-4.3,20.1c-0.1,0.5-0.3,0.8-0.7,1.1s-0.8,0.5-1.2,0.5h-7.8
		c-0.5,0-0.8-0.2-1-0.5c-0.3-0.3-0.3-0.7-0.3-1.1l8.2-38.5c0.1-0.5,0.3-0.8,0.7-1.1c0.4-0.3,0.8-0.5,1.2-0.5h5c1,0,1.7,0.5,2.1,1.4
		l10.5,20.4l4.3-20.1c0.1-0.5,0.3-0.8,0.7-1.1c0.4-0.3,0.8-0.5,1.2-0.5h7.8c0.5,0,0.8,0.2,1,0.5c0.3,0.3,0.3,0.7,0.3,1.1l-8.2,38.5
		c-0.1,0.5-0.3,0.8-0.7,1.1c-0.4,0.3-0.8,0.5-1.2,0.5h-5C83,89.4,82.5,89.3,82.2,89z"/>
	<path class="st1" d="M130.7,80.3c0.2,0.3,0.3,0.7,0.2,1.1l-1.4,6.3c-0.1,0.5-0.3,0.8-0.7,1.1c-0.4,0.3-0.8,0.5-1.2,0.5h-27.6
		c-0.5,0-0.8-0.2-1-0.5c-0.3-0.3-0.3-0.7-0.3-1.1l8.2-38.5c0.1-0.5,0.3-0.8,0.7-1.1c0.4-0.3,0.8-0.5,1.2-0.5h7.8
		c0.5,0,0.8,0.2,1,0.5c0.3,0.3,0.3,0.7,0.3,1.1l-6.5,30.6h18.2C130.1,79.9,130.5,80.1,130.7,80.3z"/>
	<path class="st1" d="M134.8,88.9c-0.3-0.3-0.3-0.7-0.3-1.1l8.2-38.5c0.1-0.5,0.3-0.8,0.7-1.1c0.4-0.3,0.8-0.5,1.2-0.5h7.8
		c0.5,0,0.8,0.2,1,0.5c0.3,0.3,0.3,0.7,0.3,1.1l-8.2,38.5c-0.1,0.5-0.3,0.8-0.7,1.1c-0.4,0.3-0.8,0.5-1.2,0.5h-7.8
		C135.4,89.4,135,89.3,134.8,88.9z"/>
	<path class="st1" d="M180.4,89c-0.3-0.3-0.6-0.6-0.8-1.1l-10.4-20.2l-4.3,20.1c-0.1,0.5-0.3,0.8-0.7,1.1c-0.4,0.3-0.8,0.5-1.2,0.5
		h-7.8c-0.5,0-0.8-0.2-1-0.5c-0.3-0.3-0.3-0.7-0.3-1.1l8.2-38.5c0.1-0.5,0.3-0.8,0.7-1.1c0.4-0.3,0.8-0.5,1.2-0.5h5
		c1,0,1.7,0.5,2.1,1.4l10.5,20.4l4.3-20.1c0.1-0.5,0.3-0.8,0.7-1.1c0.4-0.3,0.8-0.5,1.2-0.5h7.8c0.5,0,0.8,0.2,1,0.5
		c0.3,0.3,0.3,0.7,0.3,1.1l-8.2,38.5c-0.1,0.5-0.3,0.8-0.7,1.1c-0.4,0.3-0.8,0.5-1.2,0.5h-5C181.3,89.4,180.8,89.3,180.4,89z"/>
	<path class="st1" d="M209.8,79.9h18.8c0.5,0,0.8,0.2,1,0.5c0.2,0.3,0.3,0.7,0.2,1.1l-1.4,6.3c-0.1,0.5-0.3,0.8-0.7,1.1
		c-0.4,0.3-0.8,0.5-1.2,0.5h-28.2c-0.5,0-0.8-0.2-1-0.5c-0.3-0.3-0.3-0.7-0.3-1.1l8.2-38.5c0.1-0.5,0.3-0.8,0.7-1.1
		c0.4-0.3,0.8-0.5,1.2-0.5H235c0.5,0,0.8,0.2,1,0.5c0.3,0.3,0.3,0.7,0.3,1.1l-1.4,6.3c-0.1,0.5-0.3,0.8-0.7,1.1
		c-0.4,0.3-0.8,0.5-1.2,0.5h-18.3l-1.4,6.4h17c0.5,0,0.8,0.2,1,0.5c0.3,0.3,0.3,0.7,0.3,1.1l-1.4,6.3c-0.1,0.5-0.3,0.8-0.7,1.1
		c-0.4,0.3-0.8,0.5-1.2,0.5h-17L209.8,79.9z"/>
</g>
</svg>
