<?xml version="1.0" encoding="utf-8"?>
<!-- Generator: Adobe Illustrator 19.2.1, SVG Export Plug-In . SVG Version: 6.00 Build 0)  -->
<!DOCTYPE svg PUBLIC "-//W3C//DTD SVG 1.1//EN" "http://www.w3.org/Graphics/SVG/1.1/DTD/svg11.dtd">
<svg version="1.1" xmlns="http://www.w3.org/2000/svg" xmlns:xlink="http://www.w3.org/1999/xlink" x="0px" y="0px"
	 viewBox="0 0 450 221" enable-background="new 0 0 450 221" xml:space="preserve">
<g id="Layer_3">
</g>
<g id="Layer_1">
	<g>
		<path fill="#EF4141" d="M35.3,154.9v51.4c0,1.1-0.4,2.1-1.2,2.9c-0.8,0.8-1.8,1.2-2.9,1.2H10.8c-1.1,0-2.1-0.4-2.9-1.2
			c-0.8-0.8-1.2-1.8-1.2-2.9V106c0-1.1,0.4-2.1,1.2-2.9c0.8-0.8,1.8-1.2,2.9-1.2h18c2.9,0,5.1,1.4,6.7,4.2l25.1,43l25.1-43
			c1.6-2.8,3.8-4.2,6.7-4.2h18c1.1,0,2.1,0.4,2.9,1.2c0.8,0.8,1.2,1.8,1.2,2.9v100.3c0,1.1-0.4,2.1-1.2,2.9
			c-0.8,0.8-1.8,1.2-2.9,1.2H90.1c-1.1,0-2.1-0.4-2.9-1.2c-0.8-0.8-1.2-1.8-1.2-2.9v-51.4l-14.6,25.6c-0.7,1.1-1.5,2.1-2.4,2.8
			c-0.9,0.7-2,1.1-3.3,1.1h-9.9c-1.3,0-2.5-0.4-3.3-1.1c-0.9-0.7-1.7-1.7-2.4-2.8L35.3,154.9z"/>
		<path fill="#EF4141" d="M206.7,105.9c7.1,3.7,12.7,8.8,16.5,15.1c3.9,6.4,6,13.5,6.4,21.3c0.2,2.9,0.3,7.6,0.3,14
			c0,6.3-0.1,10.9-0.3,13.7c-0.4,7.9-2.6,15-6.4,21.3c-3.9,6.4-9.4,11.4-16.5,15.1s-15.6,5.6-25.5,5.6c-9.8,0-18.3-1.9-25.5-5.6
			s-12.7-8.8-16.5-15.1s-6-13.5-6.4-21.3c-0.2-5.6-0.3-10.1-0.3-13.7c0-3.5,0.1-8.2,0.3-14c0.4-7.9,2.6-15,6.4-21.3
			s9.4-11.4,16.5-15.1s15.6-5.6,25.5-5.6C191,100.3,199.5,102.1,206.7,105.9z M195.3,130c-3.3-3.3-7.9-4.9-14-4.9
			c-6.1,0-10.8,1.6-14,4.9s-5.1,7.6-5.7,13.1c-0.3,3.4-0.5,7.7-0.5,12.9c0,5.1,0.2,9.5,0.5,13.2c0.5,5.5,2.4,9.9,5.7,13.1
			s7.9,4.9,14,4.9c6.1,0,10.8-1.6,14-4.9s5.1-7.6,5.7-13.1c0.3-3.7,0.5-8.1,0.5-13.2c0-5.2-0.2-9.5-0.5-12.9
			C200.4,137.6,198.5,133.3,195.3,130z"/>
		<path fill="#EF4141" d="M327.1,193.3c-4.1,6.2-9.7,10.8-16.8,14c-7,3.2-14.8,4.7-23.3,4.7c-8.8,0-16.7-1.5-23.7-4.5
			s-12.5-7.3-16.5-12.9c-4-5.6-6-12-6.1-19.2c0-0.9,0.3-1.7,1-2.4c0.7-0.7,1.5-1,2.4-1h19.9c1.9,0,3.1,0.3,3.8,0.9
			c0.7,0.6,1.3,1.8,1.9,3.6c1.2,3.6,3.2,6.3,5.9,8.1c2.7,1.8,6.5,2.6,11.3,2.6c5.8,0,10.2-1.5,13.2-4.4c3-2.9,4.5-7.2,4.5-12.8
			v-43.3h-53.1c-1.1,0-2.1-0.4-2.9-1.2c-0.8-0.8-1.2-1.8-1.2-2.9V106c0-1.1,0.4-2.1,1.2-2.9c0.8-0.8,1.8-1.2,2.9-1.2h77.5
			c1.1,0,2.1,0.4,2.9,1.2c0.8,0.8,1.2,1.8,1.2,2.9v64.9C333.3,179.7,331.3,187.2,327.1,193.3z"/>
		<path fill="#EF4141" d="M424.5,105.9c7.1,3.7,12.7,8.8,16.5,15.1c3.9,6.4,6,13.5,6.4,21.3c0.2,2.9,0.3,7.6,0.3,14
			c0,6.3-0.1,10.9-0.3,13.7c-0.4,7.9-2.6,15-6.4,21.3c-3.9,6.4-9.4,11.4-16.5,15.1s-15.6,5.6-25.5,5.6c-9.8,0-18.3-1.9-25.5-5.6
			s-12.7-8.8-16.5-15.1c-3.9-6.4-6-13.5-6.4-21.3c-0.2-5.6-0.3-10.1-0.3-13.7c0-3.5,0.1-8.2,0.3-14c0.4-7.9,2.6-15,6.4-21.3
			c3.9-6.4,9.4-11.4,16.5-15.1s15.6-5.6,25.5-5.6C408.8,100.3,417.3,102.1,424.5,105.9z M413,130c-3.3-3.3-7.9-4.9-14-4.9
			c-6.1,0-10.8,1.6-14,4.9c-3.3,3.3-5.1,7.6-5.7,13.1c-0.3,3.4-0.5,7.7-0.5,12.9c0,5.1,0.2,9.5,0.5,13.2c0.5,5.5,2.4,9.9,5.7,13.1
			c3.3,3.3,7.9,4.9,14,4.9c6.1,0,10.8-1.6,14-4.9c3.3-3.3,5.1-7.6,5.7-13.1c0.3-3.7,0.5-8.1,0.5-13.2c0-5.2-0.2-9.5-0.5-12.9
			C418.2,137.6,416.3,133.3,413,130z"/>
	</g>
	<g>
		<path fill="#FFFFFF" d="M72.8,10.7c0.7,0.7,1,1.4,1,2.3v79.4c0,0.9-0.3,1.7-1,2.3c-0.7,0.7-1.4,1-2.3,1h-5c-0.9,0-1.7-0.3-2.3-1
			c-0.7-0.7-1-1.4-1-2.3V57.8H18.8v34.6c0,0.9-0.3,1.7-1,2.3c-0.7,0.7-1.4,1-2.3,1h-5c-0.9,0-1.7-0.3-2.3-0.9c-0.7-0.6-1-1.4-1-2.4
			V13c0-0.9,0.3-1.7,1-2.3c0.7-0.7,1.4-1,2.3-1h5c0.9,0,1.7,0.3,2.3,1c0.7,0.7,1,1.4,1,2.3v33.7h43.2V13c0-0.9,0.3-1.7,1-2.3
			c0.7-0.7,1.4-1,2.3-1h5C71.3,9.7,72.1,10.1,72.8,10.7z"/>
		<path fill="#FFFFFF" d="M149.1,63.9c0,2-0.1,3.9-0.2,5.7c-0.7,8.4-3.6,15-8.7,20c-5,5-11.9,7.4-20.5,7.4c-8.6,0-15.4-2.5-20.5-7.4
			c-5-5-7.9-11.6-8.7-20c-0.1-0.9-0.1-2.8-0.1-5.7c0-3,0-5,0.1-5.9c0.7-8.4,3.5-15,8.6-20c5.1-5,11.9-7.4,20.5-7.4
			c8.6,0,15.4,2.5,20.5,7.4c5.1,5,7.9,11.6,8.6,20C149,59.8,149.1,61.8,149.1,63.9z M132.4,46c-3-3.2-7.2-4.8-12.7-4.8
			c-5.5,0-9.7,1.6-12.7,4.8c-3,3.2-4.7,7.4-5.2,12.7c-0.1,1-0.1,2.7-0.1,5.3c0,2.5,0,4.1,0.1,5c0.5,5.2,2.2,9.5,5.2,12.7
			c3,3.2,7.2,4.8,12.7,4.8c5.5,0,9.7-1.6,12.7-4.8c3-3.2,4.7-7.4,5.2-12.7c0.2-1.8,0.2-3.5,0.2-5c0-1.6-0.1-3.3-0.2-5.3
			C137.1,53.4,135.4,49.2,132.4,46z"/>
		<path fill="#FFFFFF" d="M182.4,82.3c1.4,1.9,4.2,2.8,8.2,2.8h6.5c0.9,0,1.7,0.3,2.3,1c0.7,0.7,1,1.4,1,2.3v3.9
			c0,0.9-0.3,1.7-1,2.3c-0.7,0.7-1.4,1-2.3,1h-7.7c-7,0-12.1-1.8-15.4-5.5c-3.3-3.6-4.9-9-4.9-16V42.4H160c-0.9,0-1.7-0.3-2.3-1
			c-0.7-0.7-1-1.4-1-2.3v-3.9c0-0.9,0.3-1.7,1-2.3c0.7-0.7,1.4-1,2.3-1h9.1v-20c0-0.9,0.3-1.7,1-2.3c0.7-0.7,1.4-1,2.3-1h4.5
			c0.9,0,1.7,0.3,2.3,1c0.7,0.7,1,1.4,1,2.3v20h15.6c0.9,0,1.7,0.3,2.3,1c0.7,0.7,1,1.4,1,2.3v3.9c0,0.9-0.3,1.7-1,2.3
			c-0.7,0.7-1.4,1-2.3,1h-15.6v31.8C180.3,77.8,181,80.5,182.4,82.3z"/>
		<path fill="#FFFFFF" d="M244,13c0-0.9,0.3-1.7,1-2.3c0.7-0.7,1.4-1,2.3-1h32.9c6.5,0,11.7,1.2,15.7,3.7c4,2.5,6.9,5.5,8.6,9
			c1.7,3.5,2.6,7,2.6,10.3c0,4.6-1.1,8.3-3.3,11.1c-2.2,2.8-4.4,4.9-6.5,6.2c3.4,2.3,6.2,5.2,8.4,8.8c2.2,3.6,3.3,7.5,3.3,11.9
			c0,4.3-1,8.3-3.1,12.1c-2.1,3.8-5.2,6.9-9.3,9.3c-4.1,2.4-9,3.6-14.6,3.6h-34.6c-0.9,0-1.7-0.3-2.3-1c-0.7-0.7-1-1.4-1-2.3V13z
			 M255.7,45.6H279c5.4,0,9.5-1.1,12.3-3.2c2.8-2.1,4.2-5.2,4.2-9.2c0-4-1.4-7.1-4.2-9.2c-2.8-2.1-6.9-3.2-12.3-3.2h-23.3V45.6z
			 M255.7,84.7h25.1c5.2,0,9.3-1.3,12.2-4c2.9-2.7,4.4-6,4.4-9.9c0-4-1.4-7.4-4.2-10.1c-2.8-2.7-6.9-4.1-12.4-4.1h-25.1V84.7z"/>
		<path fill="#FFFFFF" d="M380.2,63.9c0,2-0.1,3.9-0.2,5.7c-0.7,8.4-3.6,15-8.7,20c-5,5-11.9,7.4-20.5,7.4s-15.4-2.5-20.5-7.4
			c-5-5-7.9-11.6-8.7-20c-0.1-0.9-0.1-2.8-0.1-5.7c0-3,0-5,0.1-5.9c0.7-8.4,3.5-15,8.6-20c5.1-5,11.9-7.4,20.5-7.4
			s15.4,2.5,20.5,7.4c5.1,5,7.9,11.6,8.6,20C380.1,59.8,380.2,61.8,380.2,63.9z M363.5,46c-3-3.2-7.2-4.8-12.7-4.8
			c-5.5,0-9.7,1.6-12.7,4.8c-3,3.2-4.7,7.4-5.2,12.7c-0.1,1-0.1,2.7-0.1,5.3c0,2.5,0,4.1,0.1,5c0.5,5.2,2.2,9.5,5.2,12.7
			c3,3.2,7.2,4.8,12.7,4.8c5.5,0,9.7-1.6,12.7-4.8c3-3.2,4.7-7.4,5.2-12.7c0.2-1.8,0.2-3.5,0.2-5c0-1.6-0.1-3.3-0.2-5.3
			C368.2,53.4,366.5,49.2,363.5,46z"/>
		<path fill="#FFFFFF" d="M400.3,93.4c-0.6,0.7-1.1,1.2-1.7,1.7c-0.6,0.5-1.3,0.7-2.2,0.7h-5.7c-0.8,0-1.5-0.3-2.1-0.9
			c-0.6-0.6-0.9-1.2-0.9-2c0-0.7,0.2-1.2,0.5-1.7l22.5-28.1l-21.3-26.7c-0.3-0.5-0.5-1.1-0.5-1.7c0-0.7,0.3-1.4,0.9-2
			c0.6-0.6,1.3-0.9,2.1-0.9h5.9c0.9,0,1.6,0.2,2.2,0.7c0.6,0.5,1.1,1,1.7,1.7l16.3,20.5l16.2-20.5c0.6-0.7,1.1-1.2,1.7-1.7
			c0.6-0.4,1.3-0.7,2.2-0.7h5.7c0.8,0,1.5,0.3,2.1,0.9c0.6,0.6,0.9,1.2,0.9,2c0,0.7-0.2,1.2-0.5,1.7L425,63.3l22.2,27.9
			c0.3,0.5,0.5,1.1,0.5,1.7c0,0.7-0.3,1.4-0.9,2c-0.6,0.6-1.3,0.9-2.1,0.9h-5.9c-0.9,0-1.6-0.2-2.2-0.7c-0.6-0.4-1.1-1-1.7-1.7
			l-17.3-21.7L400.3,93.4z"/>
	</g>
	
		<line fill="none" stroke="#EF4141" stroke-width="10" stroke-linecap="round" stroke-miterlimit="10" x1="181.2" y1="147.5" x2="181.2" y2="164.8"/>
	
		<line fill="none" stroke="#EF4141" stroke-width="10" stroke-linecap="round" stroke-miterlimit="10" x1="400.1" y1="147.5" x2="400.1" y2="164.8"/>
</g>
<g id="Layer_2">
</g>
</svg>
