<?xml version="1.0" encoding="utf-8"?>
<!-- Generator: Adobe Illustrator 21.0.2, SVG Export Plug-In . SVG Version: 6.00 Build 0)  -->
<svg version="1.1" xmlns="http://www.w3.org/2000/svg" xmlns:xlink="http://www.w3.org/1999/xlink" x="0px" y="0px"
	 viewBox="0 0 100 100" style="enable-background:new 0 0 100 100;" xml:space="preserve">
<style type="text/css">
	.st0{display:none;}
	.st1{display:inline;}
	.st2{fill:#439CD6;}
	.st3{fill:#3B5999;}
	.st4{display:inline;fill:#B3CDE1;}
	.st5{display:inline;fill:#F04923;}
	.st6{fill:#ED193F;}
	.st7{display:inline;fill:#36465C;}
	.st8{fill:#36465C;}
	.st9{fill:#313131;}
	.st10{fill:none;stroke:#FFFFFF;stroke-width:10;stroke-linecap:round;stroke-linejoin:round;stroke-miterlimit:10;}
</style>
<g id="Layer_1">
	<rect width="100" height="100"/>
</g>
<g id="Twitter" class="st0">
	<g transform="translate(-539.18 -568.86)" class="st1">
		<path class="st2" d="M577.8,646.7c25.8,0,39.9-21.4,39.9-39.9c0-0.6,0-1.2,0-1.8c2.7-2,5.1-4.5,7-7.3c-2.5,1.1-5.2,1.9-8.1,2.2
			c2.9-1.7,5.1-4.5,6.2-7.8c-2.7,1.6-5.7,2.8-8.9,3.4c-2.6-2.7-6.2-4.4-10.2-4.4c-7.7,0-14,6.3-14,14c0,1.1,0.1,2.2,0.4,3.2
			c-11.7-0.6-22-6.2-28.9-14.7c-1.2,2.1-1.9,4.5-1.9,7c0,4.9,2.5,9.2,6.2,11.7c-2.3-0.1-4.5-0.7-6.4-1.8c0,0.1,0,0.1,0,0.2
			c0,6.8,4.8,12.5,11.3,13.7c-1.2,0.3-2.4,0.5-3.7,0.5c-0.9,0-1.8-0.1-2.6-0.3c1.8,5.6,7,9.6,13.1,9.7c-4.8,3.8-10.8,6-17.4,6
			c-1.1,0-2.2-0.1-3.3-0.2C562.5,644.4,569.8,646.7,577.8,646.7"/>
	</g>
</g>
<g id="Facebook" class="st0">
	<g class="st1">
		<path class="st3" d="M54.9,80.8H43.3V50h-7.7V39.4l7.7,0l0-6.3c0-8.7,2.3-13.9,12.6-13.9h8.5v10.6H59c-4,0-4.2,1.5-4.2,4.3l0,5.3
			h9.6L63.3,50l-8.4,0L54.9,80.8z"/>
	</g>
</g>
<g id="LiveJournal" class="st0">
	<path class="st4" d="M73.9,80.8l-4.2-27.2c0-0.2-0.1-0.3-0.2-0.4L43.4,18.6c-2.4-3.7-7.8-3.8-13.6-0.2c-6.7,4.1-12.1,11.8-8.6,17.9
		c0,0,0,0.1,0.1,0.1l26.2,34.8c0.1,0.1,0.2,0.2,0.4,0.3l1.5,0.6c0,0,0,0,0,0l23.3,9.7c0.1,0,0.2,0.1,0.4,0.1c0.2,0,0.4-0.1,0.6-0.2
		C73.8,81.5,74,81.1,73.9,80.8z M54.9,60.9c0-1-0.1-1.9-0.3-2.9c4.3,1.9,9.5,1.8,13.7-0.5l2.2,14.3c-2.4,0.8-4.3,2.5-5.3,4.8
		l-14-5.9C53.6,68,54.9,64.6,54.9,60.9z M68,55.4c-2.1,1.3-4.5,2-7,2c-2.5,0-4.8-0.7-6.9-1.9l-17-22.8c4-3,8.3-4.4,11.1-3.5
		c0.3,0.1,0.5,0,0.8-0.1l18.9,25L68,55.4z M31.9,26.2c4.2-3.3,8.8-4.8,11.8-4l3.7,4.9c-4-0.5-8.6,1.8-11.9,4.4
		c-0.1,0.1-0.2,0.1-0.2,0.2c0,0-0.1,0-0.1,0.1c-0.1,0-0.1,0.1-0.2,0.1c-3.1,2.6-6.2,6.5-6.8,10.5L24.9,38
		C24.7,34.3,27.4,29.8,31.9,26.2z M30.7,20c3.7-2.3,8.8-3.7,11-0.3l0.3,0.4c-3.4,0-7.5,1.6-11.4,4.6c-3.3,2.6-6.7,6.7-7.6,11
		l-0.4-0.5C20.1,30.4,24.7,23.7,30.7,20z M30,44.8c0-0.1,0-0.2,0-0.3c-0.3-3.3,1.8-7.3,5.6-10.6l16.6,22.3c0,0.1,0,0.1,0,0.2
		c0.5,1.4,0.8,3,0.8,4.5c0,3.4-1.3,6.6-3.6,9.1l-0.6-0.3L30,44.8z"/>
</g>
<g id="Layer_6" class="st0">
	<path class="st5" d="M81.5,50.5c-0.1-4-3.5-7.2-7.6-7c-1.8,0.1-3.5,0.8-4.8,2c-5.7-3.9-12.4-6-19.2-6.1l3.2-15.6l10.7,2.2
		c0.3,2.7,2.8,4.7,5.5,4.4c2.7-0.3,4.7-2.8,4.4-5.5s-2.8-4.7-5.5-4.4c-1.6,0.2-3,1.1-3.8,2.4l-12.2-2.4c-0.8-0.2-1.7,0.3-1.8,1.2
		c0,0,0,0,0,0l-3.7,17.3c-7,0.1-13.7,2.2-19.5,6.1c-2.9-2.8-7.5-2.6-10.3,0.3c-2.8,2.9-2.6,7.5,0.3,10.3c0.6,0.5,1.2,1,2,1.3
		c0,0.7,0,1.5,0,2.2c0,11.2,13,20.3,29.1,20.3s29.1-9.1,29.1-20.3c0-0.7,0-1.5,0-2.2C80,55.9,81.6,53.3,81.5,50.5z M31.6,55.5
		c0-2.8,2.2-5,5-5s5,2.2,5,5c0,2.8-2.2,5-5,5C33.8,60.5,31.6,58.3,31.6,55.5z M60.6,69.3c-3.6,2.7-7.9,4-12.3,3.8
		c-4.4,0.2-8.8-1.2-12.3-3.8c-0.5-0.6-0.4-1.4,0.2-1.9c0.5-0.4,1.2-0.4,1.7,0c3,2.2,6.7,3.3,10.4,3.1c3.7,0.2,7.4-0.9,10.4-3
		c0.5-0.5,1.4-0.5,2,0c0.5,0.5,0.5,1.4,0,2l0,0V69.3L60.6,69.3z M59.7,60.7c-2.8,0-5-2.2-5-5c0-2.8,2.2-5,5-5s5,2.2,5,5
		c0.1,2.8-2,5.1-4.8,5.2c-0.1,0-0.2,0-0.2,0L59.7,60.7z"/>
</g>
<g id="GooglePlus" class="st0">
	<g class="st1">
		<path class="st6" d="M35.7,46.8v8.3h13.7c-0.6,3.6-4.2,10.4-13.7,10.4c-8.3,0-15-6.9-15-15.3S27.4,35,35.7,35c4.7,0,7.9,2,9.7,3.7
			l6.6-6.3c-4.2-3.9-9.7-6.3-16.2-6.3c-13.4,0-24.2,10.8-24.2,24.2s10.8,24.2,24.2,24.2c14,0,23.3-9.8,23.3-23.7
			c0-1.6-0.2-2.8-0.4-4L35.7,46.8L35.7,46.8z"/>
		<path class="st6" d="M87.6,46.8h-6.9v-6.9h-6.9v6.9h-6.9v6.9h6.9v6.9h6.9v-6.9h6.9"/>
	</g>
</g>
<g id="Tumblr" class="st0">
	<path class="st7" d="M69,78.9c-2.2,2.3-7.3,3.9-11.8,4h-0.5C41.3,83,38,71.7,38,65.1V46.9h-6c-0.7,0-1.3-0.6-1.3-1.3c0,0,0,0,0,0
		V37c0-0.9,0.6-1.7,1.4-2c7.9-2.8,10.3-9.6,10.7-14.8c0.1-1.4,0.8-2.1,2-2.1h9c0.7,0,1.3,0.6,1.3,1.3V34h10.5c0.7,0,1.3,0.6,1.3,1.3
		v10.4c0,0.7-0.6,1.3-1.3,1.3H55.1v16.9c0,4.2,2.8,5.4,4.5,5.4c1.7,0,3.3-0.5,4.1-0.9c0.6-0.2,1.1-0.4,1.6-0.3
		c0.4,0.1,0.7,0.4,0.9,1l2.8,8.1C69.3,77.7,69.4,78.4,69,78.9z"/>
</g>
<g id="Tumblr2" class="st0">
	<g id="IconTumblr" class="st1">
		<path class="st8" d="M57.8,85.6c6.7,0,13.4-2.4,15.6-5.3l0.4-0.6l-4.1-12.4c0-0.1-0.1-0.2-0.3-0.2H60c-0.1,0-0.2-0.1-0.3-0.2
			c-0.1-0.4-0.2-0.9-0.2-1.5V50.4c0-0.2,0.1-0.3,0.3-0.3h11c0.2,0,0.3-0.1,0.3-0.3V34.3c0-0.2-0.1-0.3-0.3-0.3H59.9
			c-0.2,0-0.3-0.1-0.3-0.3v-15c0-0.2-0.1-0.3-0.3-0.3H40.1c-1.3,0-3,1-3.2,2.9C36,29,32.4,33.8,25.7,35.9L25,36.1
			c-0.1,0-0.2,0.1-0.2,0.3v13.3c0,0.2,0.1,0.3,0.3,0.3H32v16.4C32,79.5,41.1,85.6,57.8,85.6z M70.5,79.3c-2.1,2.1-6.4,3.5-10.5,3.6
			h-0.4c-13.6,0-17.2-10.4-17.2-16.5V47.7c0-0.2-0.1-0.3-0.3-0.3h-6.6c-0.2,0-0.3-0.1-0.3-0.3v-8.6c0-0.1,0.1-0.2,0.2-0.3
			c7-2.7,10.9-8.1,12-16.6c0.1-0.5,0.4-0.5,0.4-0.5h8.8c0.2,0,0.3,0.1,0.3,0.3v15.1c0,0.2,0.1,0.3,0.3,0.3h10.9
			c0.2,0,0.3,0.1,0.3,0.3v10c0,0.2-0.1,0.3-0.3,0.3H57.1c-0.2,0-0.3,0.1-0.3,0.3v17.8c0.1,4,2.1,6.1,5.8,6.1c1.5,0,3.3-0.3,4.8-0.9
			c0.1-0.1,0.3,0,0.4,0.2l2.8,8.2C70.6,79.1,70.6,79.2,70.5,79.3L70.5,79.3z"/>
	</g>
</g>
<g id="Email" class="st0">
	<g class="st1">
		<path class="st9" d="M50.3,20L19.7,42.8v36.3h61.1V42.8L50.3,20z M41.8,36.3c0.9-1.6,2.1-2.9,3.7-3.7c1.6-0.8,3.3-1.2,5.4-1.2
			c1.7,0,3.2,0.3,4.5,1c1.3,0.7,2.3,1.6,3,2.8c0.7,1.2,1.1,2.6,1.1,4c0,1.7-0.5,3.3-1.6,4.7c-1.3,1.8-3,2.6-5.1,2.6
			c-0.6,0-1-0.1-1.3-0.3c-0.3-0.2-0.5-0.5-0.6-0.9c-0.8,0.8-1.7,1.2-2.8,1.2c-1.1,0-2.1-0.4-2.8-1.2c-0.7-0.8-1.1-1.8-1.1-3.1
			c0-1.6,0.4-3,1.3-4.4c1.1-1.6,2.5-2.4,4.2-2.4c1.2,0,2.1,0.5,2.7,1.4l0.3-1.1h2.7L53.9,43c-0.1,0.5-0.1,0.8-0.1,0.9
			c0,0.2,0,0.3,0.1,0.4c0.1,0.1,0.2,0.1,0.3,0.1c0.3,0,0.8-0.2,1.3-0.6c0.7-0.5,1.2-1.2,1.7-2.1c0.4-0.9,0.6-1.8,0.6-2.7
			c0-1.7-0.6-3.1-1.8-4.2c-1.2-1.1-2.9-1.7-5.1-1.7c-1.8,0-3.4,0.4-4.7,1.1c-1.3,0.7-2.2,1.8-2.9,3.2c-0.6,1.4-1,2.8-1,4.2
			c0,1.4,0.4,2.7,1.1,3.9c0.7,1.2,1.7,2,3,2.6c1.3,0.5,2.8,0.8,4.5,0.8c1.6,0,3-0.2,4.2-0.7c1.2-0.5,2.1-1.1,2.8-2h2.2
			c-0.7,1.4-1.7,2.5-3.1,3.2c-1.6,0.9-3.6,1.3-5.9,1.3c-2.2,0-4.2-0.4-5.8-1.1c-1.6-0.8-2.8-1.9-3.6-3.3c-0.8-1.5-1.2-3.1-1.2-4.8
			C40.5,39.7,40.9,37.9,41.8,36.3z M21.9,43.5l22.5,15.1L21.9,76.1V43.5z M23.6,77.2l26.7-20.7L77,77.2H23.6z M78.7,76.1L56.1,58.6
			l22.5-15.1L78.7,76.1L78.7,76.1z M51.4,37.9c0.4,0.4,0.5,1,0.5,1.8c0,0.7-0.1,1.4-0.4,2.2c-0.3,0.8-0.6,1.4-0.9,1.8
			c-0.2,0.3-0.5,0.5-0.8,0.6c-0.3,0.2-0.7,0.3-1.1,0.3c-0.5,0-0.9-0.2-1.3-0.6c-0.3-0.4-0.5-1-0.5-1.9c0-0.6,0.1-1.4,0.4-2.2
			c0.3-0.8,0.6-1.5,1.1-1.9c0.5-0.5,1-0.7,1.6-0.7C50.6,37.3,51,37.5,51.4,37.9z"/>
	</g>
</g>
<g id="close">
	<line class="st10" x1="11.2" y1="11.7" x2="88.7" y2="89.3"/>
	<line class="st10" x1="88.7" y1="11.7" x2="11.2" y2="89.3"/>
</g>
</svg>
