<?xml version="1.0" standalone="no"?>
<!DOCTYPE svg PUBLIC "-//W3C//DTD SVG 20010904//EN"
 "http://www.w3.org/TR/2001/REC-SVG-20010904/DTD/svg10.dtd">
<svg version="1.0" xmlns="http://www.w3.org/2000/svg"
 width="600.000000pt" height="600.000000pt" viewBox="0 0 600.000000 600.000000"
 preserveAspectRatio="xMidYMid meet">
<metadata>
Created by potrace 1.11, written by Peter Selinger 2001-2013
</metadata>
<g transform="translate(0.000000,600.000000) scale(0.100000,-0.100000)"
fill="#000000" stroke="none">
<path d="M1854 5884 c-5 -2 -34 -8 -65 -14 -32 -6 -85 -28 -121 -49 -74 -45
-106 -48 -428 -41 -165 4 -297 -41 -394 -135 -76 -73 -81 -89 -79 -257 2 -132
6 -156 33 -240 28 -88 97 -208 119 -208 18 0 21 -34 6 -56 -8 -13 -37 -35 -63
-49 -81 -42 -127 -95 -154 -175 -17 -53 -21 -198 -6 -242 12 -33 89 -118 108
-118 7 0 34 -19 62 -41 l49 -42 -29 -31 c-85 -92 -96 -113 -98 -201 -5 -142
37 -235 166 -369 l88 -91 -38 -35 c-44 -41 -63 -96 -62 -185 0 -71 30 -157 68
-199 26 -28 116 -76 142 -76 43 0 328 -112 481 -189 182 -91 238 -130 396
-275 50 -46 113 -103 140 -126 28 -24 52 -46 55 -49 14 -18 194 -164 250 -203
115 -79 145 -92 405 -167 77 -22 156 -43 175 -46 62 -11 194 -13 250 -4 127
19 149 21 172 16 26 -7 65 -41 109 -96 15 -17 57 -63 93 -102 l67 -70 -26 -54
c-34 -72 -53 -153 -60 -250 -3 -44 -9 -118 -13 -164 -11 -113 -6 -350 8 -415
15 -71 45 -128 80 -154 31 -24 151 -85 330 -170 58 -27 157 -75 220 -107 121
-59 330 -151 465 -202 44 -17 110 -43 148 -57 80 -31 103 -32 117 -7 27 52 19
61 -163 166 -326 188 -662 386 -709 418 -46 31 -61 61 -35 70 12 4 107 -41
257 -123 41 -23 118 -64 170 -92 52 -28 123 -66 157 -84 33 -19 66 -34 73 -34
13 0 248 -116 267 -131 25 -21 71 -27 92 -12 12 8 21 20 21 27 0 6 -31 38 -70
69 -58 48 -81 60 -144 76 -42 11 -84 28 -98 41 -13 12 -52 40 -88 61 -36 22
-72 44 -80 49 -65 41 -165 101 -277 165 -164 94 -195 119 -191 154 2 15 10 27
20 29 9 2 70 -35 135 -81 237 -169 349 -232 477 -267 43 -12 97 -35 120 -50
77 -52 188 -100 231 -100 54 0 73 16 95 78 l18 52 -41 10 c-23 6 -58 16 -77
21 -19 5 -66 16 -105 24 -142 30 -219 62 -380 157 -88 52 -194 114 -235 138
-86 50 -189 126 -197 146 -6 17 19 43 40 40 9 -1 28 -12 42 -24 14 -12 27 -22
29 -22 2 0 34 -21 72 -46 114 -77 368 -196 425 -200 29 -1 56 -10 66 -19 49
-49 161 -99 244 -109 36 -5 50 -2 66 13 40 38 0 111 -50 92 -32 -12 -223 32
-248 58 -8 9 -55 39 -102 66 -48 28 -185 109 -305 180 -228 137 -234 142 -212
199 l10 28 43 -32 c165 -124 349 -229 513 -294 117 -46 141 -46 159 -3 16 38
7 53 -38 62 -63 14 -300 136 -337 175 -5 5 -176 118 -247 163 -51 32 -70 62
-47 71 14 5 177 -71 359 -169 287 -154 310 -163 341 -141 14 11 -12 31 -187
143 -241 153 -299 187 -398 230 -40 18 -80 38 -87 44 -18 15 -18 40 0 64 13
18 14 18 42 0 16 -11 52 -31 79 -46 562 -290 578 -297 602 -277 11 9 10 15 -8
35 -13 12 -26 23 -30 23 -4 0 -133 75 -286 166 -153 91 -297 175 -320 186 -48
23 -59 44 -42 82 15 33 5 36 221 -68 334 -161 511 -230 521 -202 5 12 -78 71
-178 126 -81 45 -355 203 -421 243 -52 31 -91 84 -75 100 4 4 32 -5 62 -21 30
-16 90 -48 134 -72 44 -23 98 -53 120 -65 189 -107 355 -170 355 -137 0 10
-141 112 -185 134 -16 8 -70 37 -120 64 -49 27 -143 76 -208 108 -122 61 -145
82 -124 109 11 13 19 12 72 -13 33 -16 130 -60 215 -98 391 -177 370 -169 370
-138 0 17 -44 46 -265 174 -99 58 -216 126 -259 151 -88 51 -105 69 -90 99 9
19 17 16 160 -53 231 -112 413 -179 432 -161 11 11 -12 39 -49 59 -19 11 -132
78 -252 150 -156 93 -222 138 -233 158 -7 15 -14 30 -14 32 0 13 76 -6 135
-33 39 -18 104 -48 145 -67 318 -148 353 -162 363 -146 10 17 -84 83 -331 233
-139 84 -257 160 -261 169 -5 9 -6 24 -2 34 6 15 13 13 61 -20 180 -121 355
-212 455 -235 70 -17 74 -17 81 -6 9 14 -34 47 -161 123 -146 87 -132 78 -277
172 -119 77 -149 107 -133 133 10 16 41 3 150 -65 119 -75 150 -90 279 -144
93 -39 156 -52 156 -32 0 8 -38 37 -65 51 -11 5 -103 62 -230 141 -44 27 -127
77 -184 111 -58 34 -99 64 -93 66 6 2 54 -22 107 -53 124 -73 210 -112 291
-131 61 -14 170 -21 179 -12 2 2 -64 38 -148 81 -160 80 -420 244 -430 271 -8
21 11 20 48 -2 17 -10 71 -35 120 -56 50 -21 104 -44 120 -52 57 -26 243 -84
268 -84 40 0 57 10 57 34 0 32 -33 58 -135 104 -55 25 -158 89 -265 165 -96
68 -204 144 -240 169 -36 25 -94 72 -130 105 -36 33 -75 62 -88 66 -24 6 -56
-18 -144 -106 l-39 -38 -67 36 c-89 49 -197 160 -239 245 -17 36 -50 115 -73
175 -65 170 -126 306 -211 473 -94 185 -180 317 -286 443 -102 121 -164 206
-297 409 -194 294 -271 352 -571 430 -66 17 -219 64 -340 105 -189 64 -327 98
-361 89z m201 -196 c105 -36 238 -86 297 -111 59 -25 165 -60 235 -77 155 -37
218 -68 281 -134 42 -45 152 -197 152 -210 0 -3 25 -47 56 -98 59 -98 104
-157 168 -223 67 -68 190 -237 257 -351 90 -153 164 -306 240 -499 100 -252
184 -402 275 -490 41 -40 222 -174 338 -249 45 -30 69 -39 102 -39 26 0 49 -6
56 -14 16 -20 18 -269 2 -382 -31 -222 -41 -270 -115 -556 -32 -126 -86 -336
-119 -465 -50 -196 -91 -329 -107 -349 -1 -2 -13 9 -25 25 -12 16 -65 74 -118
129 -188 199 -271 295 -342 395 -50 71 -95 119 -145 157 -30 23 -34 24 -48 9
-9 -9 -23 -16 -32 -16 -9 0 -77 35 -152 78 -158 91 -169 96 -187 81 -11 -9 -9
-18 14 -48 32 -41 62 -88 62 -96 0 -3 -5 -5 -10 -5 -11 0 -27 14 -169 143 -47
42 -88 77 -92 77 -4 0 -1 -19 5 -42 7 -24 16 -60 19 -81 7 -48 1 -44 -103 56
-44 42 -88 77 -99 77 -18 0 -19 -2 -4 -53 8 -28 17 -61 19 -72 3 -11 -34 21
-83 72 -118 123 -159 143 -135 66 6 -20 9 -39 6 -42 -3 -3 -39 32 -81 77 -72
80 -76 82 -94 66 -18 -17 -21 -16 -52 12 -56 51 -170 156 -216 198 -24 23 -54
65 -67 94 -28 60 -46 72 -84 50 l-27 -15 -48 79 c-26 43 -46 81 -43 84 10 10
318 144 331 144 8 0 22 -24 32 -54 20 -59 78 -132 83 -105 1 9 -1 42 -6 74
-16 103 -9 214 17 270 l23 50 16 -24 c10 -13 47 -82 84 -153 77 -147 133 -229
152 -222 10 4 8 26 -10 107 -13 56 -26 116 -28 132 -3 17 -10 54 -17 83 -18
86 0 84 72 -5 34 -43 92 -107 128 -144 36 -36 90 -93 119 -126 29 -34 72 -73
96 -87 62 -36 174 -64 285 -72 85 -6 99 -4 115 11 22 23 18 25 -89 55 -79 22
-165 58 -195 83 -9 6 -50 55 -92 107 -43 52 -95 115 -118 140 -61 69 -170 228
-201 295 -15 33 -30 82 -34 109 l-7 49 29 -18 c15 -9 39 -27 53 -40 57 -49
126 -84 180 -90 30 -4 66 -8 80 -11 25 -4 70 19 70 36 0 6 -6 10 -13 10 -22 0
-179 71 -223 101 -100 68 -154 166 -224 409 -20 67 -27 158 -16 215 4 22 12
71 21 124 9 53 41 105 91 150 26 22 51 41 57 41 5 0 25 13 43 30 32 28 33 30
14 40 -31 17 -103 19 -137 5 -18 -8 -52 -32 -77 -55 l-46 -42 -10 27 c-15 40
-12 59 15 96 38 52 48 81 33 91 -23 14 -42 9 -93 -26 l-50 -33 -45 30 c-66 45
-99 82 -127 144 -23 51 -25 62 -19 142 6 73 5 90 -8 100 -20 17 -37 4 -68 -50
-34 -60 -43 -51 -53 53 -6 64 -19 105 -42 130 -25 27 -33 22 -28 -19 3 -21 7
-63 10 -92 l4 -55 -60 65 c-54 57 -61 62 -71 46 -5 -11 -12 -46 -15 -78 -6
-56 -9 -62 -57 -106 -50 -45 -163 -106 -221 -119 -16 -4 -75 -8 -130 -10 -111
-4 -200 14 -297 59 -82 37 -183 134 -112 107 48 -19 133 -12 186 15 100 50
178 132 178 187 0 31 -32 73 -71 94 l-30 15 133 101 c73 56 158 123 188 148
118 101 141 101 415 8z m-797 -19 c75 -17 143 -32 150 -32 18 -1 15 -7 -15
-33 -26 -22 -81 -30 -180 -27 -16 1 -16 -5 2 -56 l14 -41 -32 -24 c-18 -13
-77 -55 -132 -95 -55 -39 -106 -76 -113 -81 -18 -16 -31 -4 -58 54 -38 81 -31
169 20 252 27 45 138 109 194 113 6 1 74 -13 150 -30z m60 -356 c16 -30 15
-44 -7 -70 -48 -58 -152 -80 -228 -48 l-36 15 28 23 c16 12 67 49 114 83 94
67 89 68 129 -3z m701 -366 c27 -33 19 -83 -11 -72 -25 10 -53 76 -41 98 5 9
35 -6 52 -26z m-139 -49 c0 -27 -14 -28 -44 -5 l-28 22 23 29 23 29 13 -29 c6
-16 12 -37 13 -46z m-572 -92 c12 -3 50 -7 85 -11 34 -3 98 -10 142 -15 44 -6
96 -13 115 -15 19 -2 94 -12 165 -20 163 -20 343 -51 416 -71 99 -28 169 -121
174 -234 4 -88 -9 -103 -110 -129 -22 -6 -63 -11 -92 -11 l-52 0 -5 43 c-3 23
-8 74 -11 113 l-5 72 61 -19 c113 -35 159 -35 159 1 0 45 -119 110 -209 115
-67 4 -94 -6 -116 -39 -17 -25 -15 -68 11 -222 7 -42 -11 -54 -88 -60 -35 -3
-75 -7 -90 -9 -34 -4 -36 -1 -44 66 -4 30 -8 61 -10 69 -1 8 -3 23 -3 33 -1
10 -9 17 -20 17 -14 0 -26 -17 -46 -67 -36 -93 -47 -105 -92 -106 -52 -1 -278
14 -446 29 -159 14 -200 47 -213 175 -7 72 -10 79 -28 79 -9 0 -15 -17 -18
-47 -3 -27 -11 -61 -17 -76 -9 -24 -14 -26 -31 -17 -32 17 -51 56 -57 114 -9
99 41 190 130 232 50 24 58 25 187 20 74 -3 145 -8 158 -10z m-27 -650 c31 -4
66 -9 78 -11 96 -18 429 -25 576 -12 210 19 312 20 364 2 59 -19 95 -60 117
-131 50 -166 -125 -287 -486 -339 -25 -3 -62 -10 -82 -14 -26 -6 -35 -5 -32 3
9 26 10 183 1 203 -9 21 -12 21 -37 8 -22 -12 -32 -29 -49 -87 -30 -101 -47
-143 -57 -142 -5 1 -56 5 -114 9 -58 4 -113 9 -123 11 -10 2 -62 6 -115 9
-129 8 -156 12 -197 29 -38 16 -70 61 -79 111 -4 18 -14 40 -24 48 -16 15 -20
15 -39 2 -14 -10 -19 -22 -16 -35 9 -36 -17 -21 -46 26 -26 40 -29 53 -26 110
4 77 26 119 81 155 79 53 150 63 305 45z m880 -613 c63 -38 60 -149 -6 -213
-37 -36 -98 -60 -135 -53 -37 6 -79 51 -86 92 -3 20 -8 43 -10 52 -2 8 2 24
10 34 11 16 28 19 104 21 49 1 99 5 111 9 21 6 28 29 13 39 -7 4 -75 16 -114
20 -44 5 -25 16 26 16 37 0 69 -6 87 -17z m-240 -7 c-48 -17 -81 -59 -81 -104
0 -37 6 -51 68 -163 l31 -55 -106 -22 c-59 -12 -108 -20 -110 -18 -2 1 -4 15
-5 30 -3 33 -20 49 -49 44 -18 -2 -26 -14 -37 -55 l-14 -52 -52 -9 c-28 -4
-96 -7 -151 -6 -174 4 -301 43 -348 105 -22 30 -29 118 -14 163 12 35 78 78
161 105 83 28 107 30 371 37 127 3 231 7 232 8 1 0 32 2 70 2 64 2 66 1 34
-10z m2515 -114 c14 -8 66 -133 59 -140 -8 -8 -104 68 -107 86 -4 17 19 62 31
62 3 0 11 -4 17 -8z m-299 -2109 c-167 -459 -188 -506 -249 -543 -35 -21 -62
-16 -81 14 -31 49 -29 54 27 66 112 23 166 101 256 375 57 174 62 185 67 168
3 -7 -7 -43 -20 -80z"/>
</g>
</svg>
